<?xml version="1.0" encoding="UTF-8" standalone="no"?>
<!-- Created with Inkscape (http://www.inkscape.org/) -->

<svg
   xmlns:dc="http://purl.org/dc/elements/1.1/"
   xmlns:cc="http://creativecommons.org/ns#"
   xmlns:rdf="http://www.w3.org/1999/02/22-rdf-syntax-ns#"
   xmlns:svg="http://www.w3.org/2000/svg"
   xmlns="http://www.w3.org/2000/svg"
   xmlns:sodipodi="http://sodipodi.sourceforge.net/DTD/sodipodi-0.dtd"
   xmlns:inkscape="http://www.inkscape.org/namespaces/inkscape"
   version="1.1"
   width="2170.8823"
   height="269.29135"
   id="svg5765"
   sodipodi:docname="3ds.svg"
   inkscape:version="0.92.5 (2060ec1f9f, 2020-04-08)">
  <sodipodi:namedview
     pagecolor="#ffffff"
     bordercolor="#666666"
     borderopacity="1"
     objecttolerance="10"
     gridtolerance="10"
     guidetolerance="10"
     inkscape:pageopacity="0"
     inkscape:pageshadow="2"
     inkscape:window-width="1920"
     inkscape:window-height="1031"
     id="namedview38"
     showgrid="false"
     inkscape:zoom="0.97977544"
     inkscape:cx="1975.6295"
     inkscape:cy="134.64568"
     inkscape:window-x="0"
     inkscape:window-y="25"
     inkscape:window-maximized="1"
     inkscape:current-layer="svg5765" />
  <defs
     id="defs5767">
    <clipPath
       id="clipPath4439">
      <path
         d="m 76.965,496.958 257.093,0 0,52.963 -257.093,0 0,-52.963 z"
         id="path4441" />
    </clipPath>
  </defs>
  <metadata
     id="metadata5770">
    <rdf:RDF>
      <cc:Work
         rdf:about="">
        <dc:format>image/svg+xml</dc:format>
        <dc:type
           rdf:resource="http://purl.org/dc/dcmitype/StillImage" />
        <dc:title></dc:title>
      </cc:Work>
    </rdf:RDF>
  </metadata>
  <g
     transform="translate(-421.67289,-413.08522)"
     id="layer1">
    <g
       transform="matrix(9.2625389,0,0,-9.2625389,-402.58386,5397.0757)"
       id="g4435">
      <g
         clip-path="url(#clipPath4439)"
         id="g4437">
        <g
           transform="translate(211.56441,512.57739)"
           id="g4443">
          <path
             d="m 0,0 c 0,-0.292 -0.241,-0.531 -0.534,-0.531 l -10.189,0 c -0.296,0 -0.533,0.239 -0.533,0.531 l 0,7.37 c 0,0.293 0.237,0.53 0.533,0.53 l 10.189,0 C -0.241,7.9 0,7.663 0,7.37 L 0,0 z m -0.442,10.111 -10.375,0 c -1.502,0 -2.722,-1.229 -2.722,-2.726 l 0,-7.402 c 0,-1.495 1.22,-2.723 2.722,-2.723 l 10.375,0 c 1.502,0 2.725,1.228 2.725,2.723 l 0,7.402 c 0,1.497 -1.223,2.726 -2.725,2.726"
             id="path4445"
             style="fill:#a1a2a2;fill-opacity:1;fill-rule:nonzero;stroke:none" />
        </g>
        <g
           transform="translate(92.134293,533.7625)"
           id="g4447">
          <path
             d="m 0,0 0,-9.524 -2.381,0 0,12.855 2.033,0 9.639,-9.363 0,9.363 1.904,0 0.446,0 0,-12.855 -1.86,0 L 0,0 z"
             id="path4449"
             style="fill:#332d2b;fill-opacity:1;fill-rule:nonzero;stroke:none" />
        </g>
        <g
           transform="translate(115.99471,533.7625)"
           id="g4451">
          <path
             d="m 0,0 0,-9.524 -2.38,0 0,12.855 2.031,0 9.639,-9.363 0,9.363 1.908,0 0.444,0 0,-12.855 -1.859,0 L 0,0 z"
             id="path4453"
             style="fill:#332d2b;fill-opacity:1;fill-rule:nonzero;stroke:none" />
        </g>
        <g
           transform="translate(165.44679,533.7625)"
           id="g4455">
          <path
             d="m 0,0 0,-9.524 -2.379,0 0,12.855 2.031,0 9.638,-9.363 0,9.363 1.907,0 0.445,0 0,-12.855 -1.858,0 L 0,0 z"
             id="path4457"
             style="fill:#332d2b;fill-opacity:1;fill-rule:nonzero;stroke:none" />
        </g>
        <g
           transform="translate(109.44099,537.09309)"
           id="g4459">
          <path
             d="m 0,0 0.44,0 0,-12.854 -2.379,0 L -1.939,0 0,0 z"
             id="path4461"
             style="fill:#332d2b;fill-opacity:1;fill-rule:nonzero;stroke:none" />
        </g>
        <g
           transform="translate(143.84331,537.09309)"
           id="g4463">
          <path
             d="m 0,0 0.438,0 0,-2.211 -5.74,0 0,-10.643 -2.472,0 0,10.643 -5.736,0 0,2.211 L 0,0 z"
             id="path4465"
             style="fill:#332d2b;fill-opacity:1;fill-rule:nonzero;stroke:none" />
        </g>
        <g
           transform="translate(159.09039,537.09309)"
           id="g4467">
          <path
             d="m 0,0 0.446,0 0,-2.211 -10.201,0 0,-2.885 7.891,0 0,-2.211 -7.891,0 0,-3.333 10.201,0 0,-2.214 -12.556,0 L -12.11,0 0,0 z"
             id="path4469"
             style="fill:#332d2b;fill-opacity:1;fill-rule:nonzero;stroke:none" />
        </g>
        <g
           transform="translate(190.3214,526.4534)"
           id="g4471">
          <path
             d="m 0,0 -7.31,0 0,8.429 0.068,0 7.242,0 C 2.287,8.429 3.101,6.156 3.101,4.217 3.101,2.27 2.287,0 0,0 M 3.905,8.762 C 2.976,9.988 1.598,10.64 -0.068,10.64 l -9.537,0 0,-12.855 9.537,0 c 1.666,0 3.044,0.651 3.973,1.878 0.871,1.143 1.334,2.713 1.334,4.554 0,1.831 -0.463,3.408 -1.334,4.545"
             id="path4473"
             style="fill:#332d2b;fill-opacity:1;fill-rule:nonzero;stroke:none" />
        </g>
        <g
           transform="translate(211.56441,526.98129)"
           id="g4475">
          <path
             d="m 0,0 c 0,-0.29 -0.241,-0.529 -0.534,-0.529 l -10.189,0 c -0.296,0 -0.533,0.239 -0.533,0.529 l 0,7.37 c 0,0.291 0.237,0.528 0.533,0.528 l 10.189,0 C -0.241,7.898 0,7.661 0,7.37 L 0,0 z m -0.442,10.112 -10.375,0 c -1.502,0 -2.722,-1.23 -2.722,-2.727 l 0,-7.404 c 0,-1.496 1.22,-2.724 2.722,-2.724 l 10.375,0 c 1.502,0 2.725,1.228 2.725,2.724 l 0,7.404 c 0,1.497 -1.223,2.727 -2.725,2.727"
             id="path4477"
             style="fill:#332d2b;fill-opacity:1;fill-rule:nonzero;stroke:none" />
        </g>
        <g
           transform="translate(288.4624,515.2308)"
           id="g4479">
          <path
             d="m 0,0 c 2.469,-0.974 7.679,-1.764 11.744,-1.764 4.451,0 6.298,1.528 6.298,3.445 0,1.72 -1.714,2.731 -6.63,4.533 -6.571,2.429 -11.39,4.34 -11.39,8.656 0,4.47 5.798,7.099 14.642,7.099 4.748,0 6.378,-0.3 9.395,-0.853 l 0.021,-4.241 c -2.961,0.563 -5.586,1.531 -9.664,1.531 -4.369,0 -6.23,-1.387 -6.23,-2.817 0,-2.075 2.866,-3.067 7.898,-4.86 7.002,-2.507 10.898,-4.441 10.898,-8.667 0,-4.348 -4.878,-7.487 -15.882,-7.487 -4.52,0 -7.635,0.298 -11.1,0.855 L 0,0 z"
             id="path4481"
             style="fill:#332d2b;fill-opacity:1;fill-rule:nonzero;stroke:none" />
        </g>
        <g
           transform="translate(265.03841,533.452)"
           id="g4483">
          <path
             d="m 0,0 -5.236,0 0,-19.823 5.236,0 c 8.039,0 13.11,3.437 13.11,9.871 C 13.11,-3.52 8.039,0 0,0 m 14.06,-21.67 c -2.593,-1.173 -7.491,-1.917 -11.777,-1.917 l -16.368,0 0,27.276 16.368,0 c 4.286,0 9.184,-0.754 11.779,-1.924 6.304,-2.846 8.362,-7.401 8.362,-11.717 0,-4.319 -2.039,-8.867 -8.364,-11.718"
             id="path4485"
             style="fill:#332d2b;fill-opacity:1;fill-rule:nonzero;stroke:none" />
        </g>
        <g
           transform="translate(239.4794,524.7903)"
           id="g4487">
          <path
             d="m 0,0 c 0,0 7.636,1.223 7.636,5.977 0,4.647 -8.131,6.548 -16.782,6.548 -7.808,0 -12.941,-0.954 -12.941,-0.954 l 0,-4.222 c 3.544,0.857 6.933,1.587 11.553,1.587 4.958,0 8.742,-1.479 8.742,-3.569 0,-2.52 -3.742,-3.959 -11.795,-3.959 l -3.701,0 0,-3.799 3.438,0 c 8.483,0 13.307,-1.276 13.307,-4.39 0,-2.78 -4.31,-4.469 -9.684,-4.469 -4.686,0 -8.973,0.998 -12.45,1.963 l 0,-4.554 c 1.67,-0.287 6.101,-1.177 14.354,-1.177 9.142,0 17.097,2.94 17.097,8.122 C 8.774,-2.55 3.263,0 0,0"
             id="path4489"
             style="fill:#d12228;fill-opacity:1;fill-rule:nonzero;stroke:none" />
        </g>
        <g
           transform="translate(317.66541,513.5804)"
           id="g4491">
          <path
             d="m 0,0 -0.861,0 0,0.462 2.285,0 0,-0.462 -0.872,0 0,-2.563 L 0,-2.563 0,0 z"
             id="path4493"
             style="fill:#332d2b;fill-opacity:1;fill-rule:nonzero;stroke:none" />
        </g>
        <g
           transform="translate(321.99741,512.2518)"
           id="g4495">
          <path
             d="m 0,0 c -0.017,0.391 -0.04,0.862 -0.035,1.27 l -0.015,0 C -0.148,0.901 -0.273,0.493 -0.408,0.112 l -0.445,-1.311 -0.422,0 -0.403,1.293 C -1.795,0.48 -1.903,0.893 -1.983,1.27 l -0.009,0 C -2.006,0.875 -2.024,0.395 -2.047,-0.019 l -0.067,-1.216 -0.517,0 0.203,3.026 0.727,0 0.396,-1.216 c 0.106,-0.355 0.202,-0.715 0.278,-1.052 l 0.014,0 c 0.08,0.329 0.183,0.702 0.3,1.056 l 0.416,1.212 0.719,0 0.176,-3.026 -0.539,0 L 0,0 z"
             id="path4497"
             style="fill:#332d2b;fill-opacity:1;fill-rule:nonzero;stroke:none" />
        </g>
      </g>
    </g>
  </g>
  <path
     style="fill:#ffffff;stroke:#ffffff;stroke-width:1.02064204"
     d="M 7.6935359,68.916329 V 9.7190911 h 9.0500101 9.050011 L 70.582413,53.195177 115.37127,96.671263 115.63739,53.195177 115.9035,9.7190911 h 10.19547 10.19546 V 68.916329 128.11357 h -7.93479 -7.93478 L 75.031098,83.897196 29.63734,39.680826 29.371451,83.897196 29.105563,128.11357 H 18.399549 7.6935359 Z"
     id="path40"
     inkscape:connector-curvature="0" />
  <path
     style="fill:#ffffff;stroke:#ffffff;stroke-width:1.02064204"
     d="M 172.0169,68.916329 V 9.7190911 h 10.71674 10.71675 V 68.916329 128.11357 H 182.73364 172.0169 Z"
     id="path42"
     inkscape:connector-curvature="0" />
  <path
     style="fill:#ffffff;stroke:#ffffff;stroke-width:1.02064204"
     d="M 228.15221,68.916329 V 9.7190911 l 9.44094,0.036472 9.44094,0.036472 44.39793,43.1987079 44.39793,43.198709 0.26612,-43.235181 0.26611,-43.2351801 h 10.70579 10.70578 V 68.916329 128.11357 h -8.22478 -8.22479 L 295.7101,83.653275 250.09602,39.192983 l -0.26589,44.460292 -0.26589,44.460295 h -10.70601 -10.70602 z"
     id="path44"
     inkscape:connector-curvature="0" />
  <path
     style="fill:#ffffff;stroke:#ffffff;stroke-width:1.02064204"
     d="M 436.36319,78.612428 V 29.11129 H 409.8265 383.2898 v -9.6961 -9.6960989 h 64.30045 64.30045 v 9.6960989 9.6961 h -26.53669 -26.5367 v 49.501138 49.501142 h -11.22706 -11.22706 z"
     id="path46"
     inkscape:connector-curvature="0" />
  <path
     style="fill:#ffffff;stroke:#ffffff;stroke-width:1.02064204"
     d="M 537.40675,68.916329 V 9.7190911 h 57.66627 57.66628 v 9.6960989 9.6961 h -46.94953 -46.94954 v 13.778667 13.778667 h 36.23279 36.2328 v 9.6961 9.696099 h -36.2328 -36.23279 v 15.819952 15.819955 h 46.94954 46.94953 v 10.20642 10.20642 h -57.66628 -57.66627 z"
     id="path48"
     inkscape:connector-curvature="0" />
  <path
     style="fill:#ffffff;stroke:#ffffff;stroke-width:1.02064204"
     d="M 686.42049,68.916329 V 9.7190911 l 9.44094,0.060404 9.44093,0.060404 44.39793,43.2680779 44.39793,43.268078 0.26612,-43.328483 0.26611,-43.3284801 h 10.70579 10.70578 V 68.916329 128.11357 l -8.42029,-0.048 -8.4203,-0.048 -45.41857,-44.277679 -45.41857,-44.277757 -0.26589,44.325686 -0.26589,44.32569 H 697.1265 686.42049 Z"
     id="path50"
     inkscape:connector-curvature="0" />
  <path
     style="fill:#ffffff;stroke:#ffffff;stroke-width:1.02064204"
     d="M 849.72321,68.916329 V 9.7190911 h 46.8993 c 30.3991,0 48.80216,0.3981179 52.3079,1.1315899 7.86602,1.645731 16.35521,6.510491 22.26463,12.758828 21.45134,22.68164 20.04111,73.35181 -2.59315,93.172241 -5.59809,4.90214 -15.10104,9.06139 -23.44865,10.26297 -3.92947,0.56563 -27.00874,1.03751 -51.28726,1.04863 l -44.14277,0.0202 z m 100.93141,36.097521 c 15.49456,-7.721263 21.7025,-34.54386 13.2337,-57.178751 -2.51107,-6.711422 -7.7365,-12.872621 -13.56225,-15.990956 -4.01935,-2.151428 -5.36851,-2.232181 -42.1711,-2.524141 l -38.01892,-0.30161 v 39.341167 39.341171 h 37.56336 37.56336 z"
     id="path52"
     inkscape:connector-curvature="0" />
  <path
     style="fill:#ffffff;stroke:#ffffff;stroke-width:1.02064204"
     d="m 1029.8665,127.15919 c -4.9966,-1.21642 -9.1127,-3.76606 -12.9667,-8.03192 -6.3337,-7.01067 -6.4255,-7.74236 -6.4255,-51.231583 0,-39.257172 0,-39.299357 2.4119,-44.149137 2.7153,-5.465218 6.878,-9.377456 12.8978,-12.121573 3.7794,-1.7228633 7.9768,-1.8627197 56.5272,-1.8834706 38.2511,-0.016349 53.5816,0.3135056 56.6456,1.2188036 5.6062,1.65641 14.0614,10.111569 15.7178,15.717789 0.8791,2.97538 1.2412,15.52191 1.2412,43.005577 v 38.804594 l -2.8504,5.45626 c -3.5219,6.74185 -9.6481,11.57463 -16.5481,13.05441 -5.8751,1.25999 -101.543,1.40373 -106.6508,0.16025 z m 104.4117,-20.68323 c 0.9076,-0.90757 1.2248,-10.81083 1.2248,-38.23817 0,-35.549478 -0.078,-37.055184 -1.9742,-38.069948 -1.2822,-0.686223 -19.1491,-1.056552 -50.9742,-1.056552 h -49.0001 l -1.5888,2.268383 c -1.3632,1.946164 -1.5888,7.247476 -1.5888,37.320533 0,22.210514 0.387,35.775404 1.0565,37.026334 1.0226,1.91081 2.6708,1.97419 51.3383,1.97419 37.7472,0 50.5871,-0.30532 51.5065,-1.22477 z"
     id="path54"
     inkscape:connector-curvature="0" />
  <path
     style="fill:#ffffff;stroke:#ffffff;stroke-width:1.02064204"
     d="m 1025.6363,259.33418 c -5.29,-2.32416 -11.3358,-8.52448 -13.3162,-13.65651 -1.6643,-4.31288 -1.8458,-8.59639 -1.8458,-43.56756 0,-43.00184 0.09,-43.70191 6.5022,-50.81471 7.3025,-8.09978 4.9701,-7.82454 66.5189,-7.84979 l 54.6495,-0.0224 5.5317,3.31708 c 3.7274,2.2351 6.5425,4.95558 8.6303,8.34026 l 3.0986,5.02317 v 42.0064 42.0064 l -3.0889,4.99619 c -1.914,3.09582 -4.9889,6.17111 -8.0841,8.0851 l -4.9951,3.08891 -55.1958,0.2288 c -45.1105,0.18698 -55.7822,-0.0289 -58.4053,-1.18133 z m 107.8925,-18.9859 c 1.8961,-1.01476 1.9742,-2.52047 1.9742,-38.06995 0,-27.42734 -0.3172,-37.3306 -1.2248,-38.23816 -0.9191,-0.9191 -13.6411,-1.22477 -50.9742,-1.22477 h -49.7495 l -1.5888,2.26838 c -2.3836,3.40311 -2.3836,70.64956 0,74.05267 l 1.5888,2.26838 h 49.0001 c 31.8251,0 49.692,-0.37033 50.9742,-1.05655 z"
     id="path56"
     inkscape:connector-curvature="0" />
  <path
     style="fill:#ffffff;stroke:#ffffff;stroke-width:1.02064204"
     d="m 1271.2484,260.76292 c -21.4788,-1.13275 -54.7519,-4.54473 -72.4656,-7.43098 l -13.7787,-2.24506 -0.2766,-20.77843 c -0.2477,-18.59663 -0.1072,-20.71338 1.3375,-20.15899 4.0688,1.56134 36.0432,8.99105 48.4403,11.25578 23.2982,4.25619 40.8804,5.92344 62.7694,5.95217 30.7958,0.0404 49.8016,-3.42321 68.4831,-12.48041 12.453,-6.03746 19.8048,-13.17653 22.3317,-21.68535 1.9467,-6.55535 1.9404,-8.28943 -0.054,-15.00675 -3.6475,-12.28232 -19.0412,-21.77395 -43.8108,-27.01335 -19.9975,-4.22997 -36.5797,-5.61291 -76.8034,-6.40535 l -32.9156,-0.64848 v -16.52248 -16.52247 l 32.9157,-0.63224 c 34.9565,-0.67143 46.8127,-1.55778 64.0989,-4.79188 30.6826,-5.740425 45.7824,-16.294756 45.8528,-32.04976 0.061,-13.682403 -14.8963,-24.06181 -43.6163,-30.266476 -12.9086,-2.788778 -49.7367,-3.848142 -69.8443,-2.00908 -20.8652,1.908344 -58.8053,8.651076 -72.529,12.889887 -1.6576,0.51198 -1.7861,-0.838671 -1.7861,-18.770052 V 16.12144 l 12.5458,-1.681247 c 57.5147,-7.7074439 123.6957,-8.9369857 167.0449,-3.103438 59.8769,8.057704 92.5147,26.671911 94.7096,54.015442 1.3853,17.257933 -9.8661,33.131117 -31.4406,44.355393 -8.4442,4.39313 -26.2866,10.72836 -33.3955,11.85762 -6.9037,1.09664 -5.9276,2.1176 2.6576,2.77964 15.6454,1.20649 38.3236,10.77103 51.7,21.80448 21.2472,17.52569 26.9917,43.60051 14.2517,64.68959 -14.4524,23.9236 -54.5641,41.90336 -108.1786,48.49015 -15.8617,1.94869 -63.7321,2.72652 -88.2435,1.43385 z"
     id="path58"
     inkscape:connector-curvature="0" />
  <path
     style="fill:#ffffff;stroke:#ffffff;stroke-width:1.02064204"
     d="M 1501.031,134.81582 V 8.698449 l 73.231,0.013872 c 95.1961,0.018032 118.5035,1.2079845 150.6453,7.691141 22.6014,4.5588 37.7815,10.283766 55.0322,20.754531 39.8151,24.166958 59.8151,60.370002 57.5773,104.223917 -1.4675,28.75752 -12.7112,53.12877 -33.7869,73.23457 -10.6475,10.15741 -19.9043,16.64704 -34.7006,24.32719 -17.5273,9.0977 -36.7955,14.37105 -69.3337,18.9754 -14.6664,2.07537 -20.1581,2.20879 -107.062,2.60086 l -91.6026,0.41326 z m 149.524,91.26321 c 52.7227,-4.86089 85.4545,-25.76989 97.789,-62.46735 3.0877,-9.18637 3.1847,-10.02525 3.2191,-27.8433 0.031,-16.20552 -0.2413,-19.32743 -2.312,-26.47894 -10.0789,-34.809212 -38.4166,-56.320076 -84.9174,-64.46 -7.3557,-1.287614 -18.5033,-1.813566 -46.1841,-2.179013 l -36.4879,-0.481721 v 92.473574 92.47356 l 28.8331,-8.5e-4 c 15.8582,-4.7e-4 33.8853,-0.46665 40.0602,-1.03596 z"
     id="path60"
     inkscape:connector-curvature="0" />
  <path
     style="fill:#ffffff;stroke:#ffffff;stroke-width:1.02064204"
     d="m 1928.1697,261.12737 c -22.8419,-0.58877 -53.1037,-3.29384 -73.2311,-6.54607 l -6.8893,-1.11319 v -20.32063 c 0,-11.17635 0.2441,-20.32062 0.5426,-20.32062 0.2984,0 5.0062,1.32234 10.4616,2.93854 22.3922,6.63381 56.1884,11.26496 87.998,12.05852 33.2364,0.82915 48.8069,-2.6599 59.8477,-13.41073 8.19,-7.97493 10.5894,-19.2167 5.997,-28.09744 -4.4715,-8.64686 -20.7991,-18.04714 -51.5557,-29.68207 -66.2199,-25.05037 -82.2445,-32.99604 -97.7259,-48.45669 -15.5706,-15.54969 -19.456,-34.897395 -10.7411,-53.485725 3.6446,-7.773801 15.8717,-19.722872 26.0198,-25.428174 15.3229,-8.614594 39.1833,-15.370744 66.1169,-18.721194 13.9339,-1.733322 74.31,-1.7487344 87.7753,-0.02241 5.3328,0.683702 15.7414,2.246886 23.1301,3.473743 13.3913,2.223564 13.4359,2.240174 14.0338,5.229686 0.8155,4.077581 0.7651,35.404421 -0.057,35.404421 -0.3612,0 -9.8915,-2.058262 -21.1783,-4.573915 -37.8735,-8.4414 -58.7218,-10.741524 -79.8465,-8.809209 -29.7336,2.719777 -45.5264,11.964984 -45.5264,26.651471 0,5.830882 1.7851,9.42369 7.4806,15.055934 7.6599,7.57495 20.3361,13.390152 62.1586,28.515182 53.5403,19.36277 75.4828,30.5747 89.8094,45.88991 19.8882,21.26049 19.0016,51.30432 -2.1013,71.21175 -15.6265,14.74123 -39.3663,24.05667 -74.2256,29.12594 -14.3926,2.09298 -48.2761,4.2613 -60.9423,3.89991 -3.9295,-0.11212 -11.7374,-0.32224 -17.3509,-0.46694 z"
     id="path62"
     inkscape:connector-curvature="0" />
  <path
     style="fill:#ffffff;stroke:#ffffff;stroke-width:1.02064204"
     d="M 2118.5194,238.34291 V 226.0952 h -4.0826 c -2.9485,0 -4.0825,-0.42527 -4.0825,-1.53096 0,-1.25879 1.8144,-1.53096 10.2064,-1.53096 8.3919,0 10.2064,0.27217 10.2064,1.53096 0,1.10569 -1.134,1.53096 -4.0826,1.53096 h -4.0825 v 12.24771 c 0,11.56727 -0.1134,12.2477 -2.0413,12.2477 -1.9279,0 -2.0413,-0.68043 -2.0413,-12.2477 z"
     id="path64"
     inkscape:connector-curvature="0" />
  <path
     style="fill:#ffffff;stroke:#ffffff;stroke-width:1.02064204"
     d="m 2134.8497,246.15452 c 0,-2.43985 0.3001,-8.6641 0.6669,-13.83166 l 0.6669,-9.39556 3.0819,0.30815 c 2.7548,0.27544 3.2739,0.90388 4.8916,5.92168 0.9954,3.08744 2.3272,7.62393 2.9597,10.08109 0.6324,2.45715 1.4882,4.06467 1.9018,3.57224 0.4135,-0.49242 2.074,-5.14373 3.6899,-10.33625 2.7774,-8.92449 3.0926,-9.44093 5.7618,-9.44093 3.3119,0 3.5095,0.76788 4.3982,17.09575 0.5345,9.81865 0.4496,10.46158 -1.3817,10.46158 -1.7427,0 -2.0214,-1.06296 -2.6087,-9.95126 -0.9478,-14.34422 -1.016,-14.60566 -2.4847,-9.52157 -0.7169,2.48174 -2.466,7.64874 -3.887,11.48222 -3.6896,9.95402 -5.2016,9.44135 -8.8013,-2.98425 -4.1038,-14.1656 -4.1156,-14.1699 -4.8595,-1.78317 -0.8275,13.78006 -0.6301,12.75803 -2.4649,12.75803 -1.126,0 -1.5309,-1.17333 -1.5309,-4.43609 z"
     id="path68"
     inkscape:connector-curvature="0" />
</svg>
