<!DOCTYPE svg PUBLIC "-//W3C//DTD SVG 20010904//EN" "http://www.w3.org/TR/2001/REC-SVG-20010904/DTD/svg10.dtd">
<svg version="1.0" xmlns="http://www.w3.org/2000/svg" width="246px" height="95px" viewBox="0 0 2460 950" preserveAspectRatio="xMidYMid meet">
<g id="layer101" fill="#000000" stroke="none">
</g>
<g id="layer102" fill="#ffffff" stroke="none">
<path d="M190 913 c0 -10 6 -41 14 -69 l14 -52 -45 -37 c-24 -20 -42 -39 -40 -42 4 -3 74 45 104 71 1 1 -4 26 -12 56 -8 30 -12 56 -10 58 2 3 43 -12 91 -32 l86 -36 825 0 c896 0 893 0 988 -55 96 -57 177 -174 191 -277 l6 -46 -36 12 c-39 12 -42 19 -25 63 10 26 8 31 -27 60 -65 57 -276 125 -337 109 -26 -6 -22 4 -113 -311 l-43 -150 22 -23 c46 -49 236 -121 325 -123 23 0 21 -3 -18 -19 -43 -18 -86 -19 -927 -19 -852 -1 -885 0 -934 19 -28 10 -70 32 -92 47 l-41 28 30 3 c16 2 35 8 42 14 9 8 12 5 12 -10 0 -24 12 -29 106 -38 64 -6 73 -4 85 14 8 11 23 21 33 23 15 3 25 22 39 76 11 40 23 70 27 68 4 -3 11 -22 14 -42 19 -104 24 -113 62 -113 29 0 35 3 30 16 -6 15 0 16 48 10 45 -5 58 -3 80 15 l26 20 0 -30 c0 -32 8 -39 27 -20 8 8 17 8 31 0 27 -14 78 -14 105 1 25 14 167 11 182 -3 5 -5 24 -9 42 -9 l32 0 3 93 3 92 36 3 37 3 3 -80 c2 -44 7 -82 11 -86 11 -11 200 -7 211 4 7 7 16 2 29 -15 17 -21 27 -24 83 -24 55 0 66 3 79 22 22 31 20 100 -3 129 -16 20 -28 24 -65 22 -36 -1 -46 2 -46 14 0 13 10 15 61 10 51 -4 60 -3 55 10 -3 8 -6 23 -6 34 0 17 -8 19 -60 19 -51 0 -65 -4 -85 -25 -14 -13 -25 -29 -25 -34 0 -9 -39 2 -59 16 -2 1 8 18 23 38 l27 35 -39 0 c-36 0 -40 -3 -55 -40 -20 -51 -35 -51 -43 0 -5 30 -11 40 -25 40 -15 0 -19 -8 -19 -32 l-1 -33 -20 28 c-18 23 -28 27 -73 27 -73 0 -89 -15 -96 -87 -4 -52 -7 -58 -29 -61 -37 -6 -51 22 -51 100 0 61 -2 68 -20 68 -18 0 -20 -7 -20 -54 0 -81 -9 -116 -31 -116 -17 0 -19 8 -19 70 0 68 -1 70 -25 70 -25 0 -25 -1 -25 -80 l0 -80 -39 0 -38 0 -7 82 c-4 45 -8 83 -9 85 -2 1 -13 0 -25 -4 -19 -4 -22 -12 -22 -51 0 -43 -1 -44 -18 -29 -12 11 -36 17 -65 17 -34 0 -45 3 -41 13 3 10 20 12 60 9 l55 -5 -3 34 -3 34 -65 -3 c-38 -2 -72 -10 -81 -18 -9 -8 -20 -38 -24 -67 l-7 -52 -19 55 c-11 30 -21 60 -23 67 -3 8 -14 9 -32 4 -25 -6 -30 -16 -49 -87 l-22 -79 -5 52 c-7 77 -16 83 -114 83 -49 0 -84 4 -84 10 0 10 -11 12 -98 12 -62 1 -92 -20 -93 -66 l-1 -31 -9 30 c-6 17 -10 62 -10 100 0 39 4 84 10 100 9 30 9 30 10 -10 2 -67 22 -85 92 -85 33 0 69 5 80 10 14 8 19 7 19 -3 0 -10 19 -16 61 -20 52 -6 66 -4 103 17 37 20 45 22 61 10 25 -18 125 -18 150 0 17 12 22 12 39 0 11 -8 44 -14 73 -14 70 0 93 22 93 88 0 64 -24 88 -87 85 -30 -1 -43 2 -40 10 2 7 28 13 61 15 54 3 58 4 52 25 -3 12 -6 25 -6 30 0 13 -104 7 -132 -7 -26 -14 -28 -13 -28 5 0 15 -7 19 -36 19 l-35 0 3 -85 c3 -81 2 -85 -18 -85 -20 0 -22 7 -29 85 -5 63 -10 85 -21 85 -14 0 -15 -10 -19 -140 -1 -19 -4 -34 -8 -32 -4 1 -14 2 -22 2 -12 0 -15 16 -15 85 0 69 -3 85 -15 85 -8 0 -15 -6 -15 -13 0 -24 -22 -38 -38 -25 -16 14 -86 12 -114 -3 -14 -8 -18 -6 -18 9 0 17 -8 19 -55 20 -30 0 -63 3 -73 6 -27 9 -46 -18 -76 -112 -34 -107 -35 -208 -4 -290 11 -31 23 -78 25 -104 5 -44 7 -48 32 -48 16 0 49 -16 81 -40 108 -80 35 -75 1045 -75 l900 0 55 29 c30 16 69 39 86 52 17 13 39 24 48 24 35 0 73 30 100 80 32 58 32 107 2 264 -28 151 -96 247 -218 312 l-73 39 -865 5 -865 5 -99 43 c-55 23 -101 42 -103 42 -1 0 -3 -8 -3 -17z m14 -289 c5 -13 1 -14 -24 -9 -27 6 -30 4 -30 -18 0 -26 20 -37 72 -37 15 0 30 -4 33 -10 3 -5 35 -10 71 -10 40 0 64 -4 64 -11 0 -8 -21 -9 -70 -4 -56 6 -70 4 -70 -6 -1 -9 -6 -7 -16 6 -13 17 -24 19 -74 17 l-60 -4 0 51 0 51 49 0 c35 0 51 -4 55 -16z m190 -36 c-3 -4 -25 -8 -50 -8 -32 0 -44 4 -44 14 0 10 14 16 43 18 40 3 61 -7 51 -24z m376 -34 c0 -12 -10 -14 -47 -12 -66 4 -70 28 -4 28 39 0 51 -4 51 -16z m1585 -130 c8 -4 22 -19 30 -35 38 -72 0 -171 -66 -177 -59 -5 -66 14 -39 106 33 114 38 120 75 106z m-2135 -98 c0 -9 -17 -15 -47 -19 -54 -6 -58 -4 -50 18 8 20 97 22 97 1z m160 -56 c0 -66 1 -66 -72 -54 -38 7 -38 7 -38 54 0 26 3 50 7 53 3 4 28 7 55 7 l48 0 0 -60z m-232 -10 c26 0 54 6 61 13 11 10 13 9 9 -3 -7 -24 -128 -27 -145 -4 -20 27 -15 36 7 14 14 -14 33 -20 68 -20z m582 25 c0 -10 -11 -15 -35 -15 -19 0 -38 0 -42 -1 -5 0 -9 7 -11 15 -3 13 6 16 42 16 34 0 46 -4 46 -15z m765 -5 c0 -18 -34 -24 -92 -15 -57 8 -55 23 5 28 71 6 87 3 87 -13z m165 -36 c0 -12 -10 -14 -47 -12 -66 4 -70 28 -4 28 39 0 51 -4 51 -16z m383 -28 c82 -31 147 -72 147 -92 0 -14 -10 -16 -67 -12 -110 8 -289 93 -268 128 11 18 108 6 188 -24z m212 -86 c-25 -28 -37 -25 -29 8 10 41 15 45 32 28 14 -14 14 -17 -3 -36z"/>
<path d="M850 694 l0 -37 66 6 c57 4 65 3 62 -12 -2 -12 -16 -17 -55 -19 -62 -4 -76 -18 -76 -78 0 -65 30 -94 99 -94 29 0 54 -4 56 -9 2 -5 42 -12 91 -16 76 -6 87 -5 87 9 0 11 9 16 29 16 l29 0 7 95 7 95 33 0 33 0 7 -85 c5 -61 11 -85 21 -85 7 0 18 -9 24 -19 14 -28 152 -41 179 -17 10 9 30 16 44 16 15 0 27 5 27 10 0 6 10 4 23 -4 28 -19 141 -10 159 12 9 10 12 45 10 110 -3 124 -11 134 -101 130 -64 -3 -66 -4 -83 -38 l-18 -35 0 36 c0 28 -5 38 -20 42 -18 5 -20 0 -20 -36 0 -40 -1 -41 -13 -17 -12 24 -18 25 -106 28 -65 2 -98 7 -108 17 -20 21 -117 20 -137 -1 -19 -19 -25 -42 -28 -114 -3 -51 -5 -55 -29 -58 -27 -3 -27 -2 -34 77 -5 58 -11 81 -22 86 -9 3 -17 4 -19 2 -2 -1 -4 -42 -5 -90 -1 -73 -4 -87 -16 -83 -8 3 -19 6 -24 6 -5 0 -9 7 -9 16 0 14 -8 16 -60 10 -50 -6 -60 -5 -60 9 0 11 11 15 50 15 42 0 52 4 66 25 11 17 14 35 10 59 -8 41 -41 56 -122 56 l-54 0 0 -36z m900 -76 c0 -63 -9 -71 -64 -63 l-46 7 0 49 0 49 55 0 55 0 0 -42z m-250 -28 c0 -66 1 -66 -72 -54 -38 7 -38 7 -38 54 0 26 3 50 7 53 3 4 28 7 55 7 l48 0 0 -60z"/>
</g>


</svg>