<?xml version="1.0" encoding="UTF-8" standalone="no"?>
<svg
   xmlns:dc="http://purl.org/dc/elements/1.1/"
   xmlns:cc="http://creativecommons.org/ns#"
   xmlns:rdf="http://www.w3.org/1999/02/22-rdf-syntax-ns#"
   xmlns:svg="http://www.w3.org/2000/svg"
   xmlns="http://www.w3.org/2000/svg"
   xmlns:sodipodi="http://sodipodi.sourceforge.net/DTD/sodipodi-0.dtd"
   xmlns:inkscape="http://www.inkscape.org/namespaces/inkscape"
   version="1.0"
   width="357.000000pt"
   height="211.000000pt"
   viewBox="0 0 357.000000 211.000000"
   preserveAspectRatio="xMidYMid meet"
   id="svg3781"
   sodipodi:docname="amigacdtv.svg"
   inkscape:version="0.92.5 (2060ec1f9f, 2020-04-08)">
  <defs
     id="defs3785" />
  <sodipodi:namedview
     pagecolor="#ffffff"
     bordercolor="#666666"
     borderopacity="1"
     objecttolerance="10"
     gridtolerance="10"
     guidetolerance="10"
     inkscape:pageopacity="0"
     inkscape:pageshadow="2"
     inkscape:window-width="1920"
     inkscape:window-height="1031"
     id="namedview3783"
     showgrid="false"
     inkscape:zoom="3.014218"
     inkscape:cx="238"
     inkscape:cy="140.66667"
     inkscape:window-x="0"
     inkscape:window-y="25"
     inkscape:window-maximized="1"
     inkscape:current-layer="svg3781" />
  <metadata
     id="metadata3769">
Created by potrace 1.12, written by Peter Selinger 2001-2015
<rdf:RDF>
  <cc:Work
     rdf:about="">
    <dc:format>image/svg+xml</dc:format>
    <dc:type
       rdf:resource="http://purl.org/dc/dcmitype/StillImage" />
    <dc:title></dc:title>
  </cc:Work>
</rdf:RDF>
</metadata>
  <g
     transform="translate(0.000000,211.000000) scale(0.100000,-0.100000)"
     fill="#000000"
     stroke="none"
     id="g3779">
    <path
       d="M640 2030 c-68 -12 -173 -53 -235 -91 -62 -37 -212 -184 -256 -249 -84 -125 -101 -367 -41 -595 93 -355 395 -716 750 -895 185 -93 406 -141 550 -120 223 34 430 166 515 328 76 145 77 154 71 589 -7 496 -11 511 -142 581 -53 28 -69 32 -141 32 l-82 0 -72 68 c-171 161 -342 260 -552 322 -119 34 -275 47 -365 30z m375 -48 c138 -42 223 -82 339 -159 93 -62 236 -185 236 -204 0 -5 -64 -10 -142 -11 l-143 -3 0 -485 0 -485 234 -3 c192 -2 243 0 282 13 55 19 136 86 145 121 12 46 24 24 24 -43 0 -94 -24 -194 -65 -282 -61 -129 -206 -253 -340 -293 -145 -42 -358 -22 -556 54 -349 132 -699 498 -818 853 -84 252 -80 485 11 658 73 137 231 257 383 291 112 25 285 16 410 -22z m667 -589 c17 -15 18 -37 18 -279 0 -295 0 -294 -71 -294 l-39 0 0 288 c0 159 3 292 7 295 12 13 67 7 85 -10z"
       id="path3771" />
    <path
       d="M595 1591 c-48 -22 -69 -44 -90 -94 -12 -30 -15 -90 -15 -344 0 -361 6 -412 52 -461 58 -60 67 -62 291 -62 210 0 229 3 290 44 46 31 60 70 65 187 6 139 9 136 -145 137 -145 1 -153 -4 -153 -89 0 -51 -3 -61 -25 -75 -30 -20 -63 -10 -76 23 -12 32 -12 484 1 517 12 34 54 44 80 21 15 -14 20 -31 20 -72 0 -92 1 -93 149 -93 91 0 131 4 138 13 6 7 8 61 4 139 -7 139 -9 144 -85 199 l-39 29 -211 0 c-183 0 -216 -3 -251 -19z"
       id="path3773" />
    <path
       d="M2052 1598 c-17 -17 -16 -162 1 -176 7 -6 46 -12 87 -14 l75 -3 5 -385 5 -385 129 -3 c86 -2 133 1 142 9 12 9 14 79 14 390 l0 378 83 3 82 3 3 83 c2 53 -1 89 -9 98 -16 19 -598 21 -617 2z"
       id="path3775" />
    <path
       d="M2747 1596 c-3 -7 10 -87 29 -177 19 -90 61 -299 94 -463 33 -165 65 -305 71 -313 9 -10 52 -13 180 -13 164 0 169 1 183 23 7 12 16 36 19 52 3 17 24 118 47 225 95 453 132 650 127 664 -5 13 -27 16 -135 16 -111 0 -131 -2 -145 -18 -12 -13 -27 -100 -57 -327 -22 -170 -42 -311 -45 -313 -6 -6 -11 33 -50 342 -26 209 -39 284 -52 298 -14 16 -33 18 -138 18 -95 0 -124 -3 -128 -14z"
       id="path3777" />
  </g>
  <path
     style="fill:#ffffff;stroke:#ffffff;stroke-width:0.331761"
     d="M 172.97484,271.01743 C 154.94285,269.95377 134.27869,264.14907 115.41431,254.84828 85.618527,240.15793 57.725511,215.24577 38.125738,185.81934 32.44682,177.29321 29.369523,171.94348 25.162139,163.28275 19.001011,150.60033 15.408005,140.21931 12.73612,127.38111 7.2427023,100.98567 9.7092297,73.087958 18.873697,57.961922 22.042957,52.731027 30.359172,43.441695 39.216648,35.23855 c 6.84557,-6.339865 9.990847,-8.96725 13.826591,-11.549942 7.077232,-4.765259 21.91664,-10.76091 31.351415,-12.667093 12.7191,-2.5697418 34.121616,-0.7835 50.992816,4.25583 19.85797,5.931463 38.04729,15.140212 54.64186,27.66366 6.71759,5.06957 12.25185,9.879989 22.68721,19.719884 l 4.40915,4.157556 10.02245,0.153794 c 12.11409,0.185889 12.77279,0.336005 20.8697,4.756093 4.9214,2.686591 6.80912,3.990823 9.06448,6.262709 7.09721,7.149201 8.20947,17.829769 8.67248,83.277989 0.2634,37.23347 -0.0525,42.53661 -3.07305,51.58883 -1.27706,3.8272 -5.44698,12.52964 -8.08487,16.87275 -11.71292,19.28458 -36.05267,34.81379 -62.71317,40.01217 -6.64057,1.29481 -12.20644,1.67 -18.90887,1.27465 z m 28.38061,-7.20177 c 8.13247,-1.20734 12.45572,-2.51934 19.2271,-5.83496 14.61994,-7.15871 27.85456,-19.67305 35.09442,-33.18447 6.14101,-11.46071 10.42971,-30.03149 9.74469,-42.19619 -0.40876,-7.25891 -1.80726,-8.88176 -3.3206,-3.8533 -0.65585,2.17923 -2.07018,4.06512 -5.48749,7.31714 -5.02783,4.78463 -11.3864,8.62697 -16.04906,9.69808 -5.15632,1.18451 -18.95573,1.43893 -51.5822,0.95102 l -14.68042,-0.21954 V 132.07041 67.647373 l 3.5351,-0.216295 c 1.9443,-0.118966 6.01252,-0.218289 9.04048,-0.220721 10.02779,-0.0081 24.55871,-0.857333 25.17262,-1.471243 C 213.1954,64.593802 200.94009,53.179 188.49883,43.803086 172.976,32.104845 158.53053,24.482785 140.95991,18.719465 c -10.9073,-3.577688 -18.48127,-5.142006 -29.5968,-6.112888 -6.75044,-0.589614 -18.719666,-0.48804 -23.816726,0.202115 -8.281478,1.121333 -15.146894,3.235258 -22.720447,6.995837 -15.797988,7.844345 -28.98433,20.432625 -35.950578,34.320046 -5.733643,11.430189 -8.379843,22.876166 -8.740477,37.8064 -0.365368,15.126265 1.702535,29.007345 6.737043,45.223315 12.560993,40.4585 46.657755,81.97399 87.145095,106.10601 16.50432,9.83721 35.51018,16.7162 54.31317,19.65815 3.59163,0.56195 5.79297,0.8205 12.7728,1.5002 2.95673,0.28792 17.08473,-0.13272 20.25246,-0.60299 z m 21.94107,-92.61521 c 1.25538,-0.91924 2.04752,-2.61169 2.66904,-5.70256 0.43553,-2.16591 0.5392,-6.91401 0.65926,-30.19374 0.14392,-27.90606 -0.0636,-35.717365 -1.00885,-37.97973 -0.93916,-2.247737 -3.52043,-3.602559 -7.78243,-4.084751 -2.59542,-0.293638 -4.64112,0.276855 -5.07382,1.414951 -0.53243,1.400393 -0.9509,23.89989 -0.96019,51.62505 l -0.009,25.81724 5.28512,-0.10576 c 4.71919,-0.0944 5.38528,-0.17912 6.22052,-0.7907 z"
     id="path3787"
     inkscape:connector-curvature="0"
     transform="scale(0.74999999)" />
  <path
     style="fill:#ffffff;stroke:#ffffff;stroke-width:0.331761"
     d="m 92.025157,196.91592 c -10.34949,-0.4965 -13.381232,-1.63092 -18.578616,-6.95179 -3.070313,-3.14325 -4.369412,-5.29662 -5.440571,-9.0182 -2.070104,-7.19227 -2.677572,-22.56556 -2.416195,-61.14703 0.222814,-32.889152 0.371946,-34.913855 2.960841,-40.197982 2.226438,-4.544328 4.93261,-7.255221 9.540579,-9.557222 5.741094,-2.868078 6.159457,-2.902919 36.659595,-3.053058 l 26.20912,-0.129016 4.94476,3.690611 c 7.84808,5.857553 9.32403,7.765805 10.28336,13.295313 0.66598,3.838661 1.24512,13.406447 1.3026,21.519754 0.0557,7.85768 -0.16406,9.7567 -1.20805,10.44017 -1.37103,0.89759 -6.77025,1.27685 -18.30852,1.28607 -18.66346,0.0149 -18.68307,0.004 -19.1091,-10.86314 -0.3224,-8.223553 -0.90637,-9.977402 -3.90778,-11.736345 -3.25393,-1.906934 -7.54929,-0.704326 -9.22277,2.582176 -1.39545,2.740494 -1.58676,7.083159 -1.5929,36.158989 -0.007,33.055 0.0878,34.2427 2.93337,36.7411 2.38072,2.0903 5.06304,2.19475 8.21077,0.31972 2.90282,-1.72914 3.2817,-2.8287 3.59153,-10.42288 0.27626,-6.77133 0.58024,-8.07103 2.18249,-9.33136 2.10195,-1.6534 3.48275,-1.82437 15.88034,-1.96627 15.93114,-0.18235 19.01169,0.32695 20.59058,3.40419 1.68435,3.28278 0.69885,24.54261 -1.42328,30.70385 -1.55493,4.51449 -3.69419,7.02667 -8.40834,9.87413 -5.41983,3.27372 -8.38411,3.94534 -19.34598,4.38329 -8.77862,0.35072 -28.782071,0.33692 -36.327833,-0.0251 z"
     id="path3789"
     inkscape:connector-curvature="0"
     transform="scale(0.74999999)" />
  <path
     style="fill:#ffffff;stroke:#ffffff;stroke-width:0.331761"
     d="m 302.27869,196.70113 -5.55699,-0.1156 -0.0133,-6.2125 c -0.0231,-10.83539 -1.22412,-96.307812 -1.35464,-96.408214 -0.0688,-0.05289 -3.55874,-0.274092 -7.75552,-0.491549 -7.49573,-0.388395 -12.02598,-0.953383 -13.35722,-1.665839 -1.49882,-0.802144 -2.24528,-6.210986 -1.97169,-14.286747 0.21778,-6.428182 0.67221,-8.618607 1.91098,-9.211171 4.82658,-2.308782 76.9005,-2.102457 81.26365,0.232632 0.71153,0.380802 1.2241,2.491806 1.49015,6.137261 0.20999,2.877234 -0.3033,17.335885 -0.62692,17.659504 -0.10891,0.108907 -5.01321,0.384936 -10.89845,0.613397 -5.88524,0.228462 -10.72289,0.428033 -10.75033,0.443491 -0.0274,0.01546 -0.12461,20.966375 -0.21593,46.557585 -0.16431,46.04863 -0.32761,52.88511 -1.31231,54.93963 -0.79565,1.6601 -1.99338,1.81834 -14.18051,1.87346 -6.1127,0.0276 -13.61465,-0.002 -16.671,-0.0653 z"
     id="path3791"
     inkscape:connector-curvature="0"
     transform="scale(0.74999999)" />
  <path
     style="fill:#ffffff;stroke:#ffffff;stroke-width:0.331761"
     d="m 400.72877,196.93816 c -5.28204,-0.28396 -7.61814,-0.67424 -8.31971,-1.38993 -1.01728,-1.03777 -4.85753,-18.38189 -13.20936,-59.65892 -3.37818,-16.69587 -7.12646,-35.13349 -8.32951,-40.972486 -2.42862,-11.787274 -4.47868,-23.381359 -4.47868,-25.329071 0,-1.592993 0.66002,-1.943098 4.56323,-2.420538 3.91842,-0.479301 25.9959,-0.181272 27.87755,0.376325 4.50955,1.336332 4.80301,2.742582 11.35501,54.41181 3.56105,28.08248 4.23736,32.51257 4.96351,32.51257 0.16314,0 0.37874,-0.26126 0.47912,-0.58058 0.43928,-1.39743 2.557,-16.21524 5.51192,-38.56721 4.5774,-34.624997 6.37663,-44.654888 8.34085,-46.496286 1.74903,-1.639673 3.17327,-1.774945 18.6879,-1.774945 17.93054,0 18.35756,0.09021 17.92885,3.787358 -0.99155,8.550881 -6.78669,38.071723 -17.58972,89.603363 -2.6203,12.4991 -5.01531,23.99462 -5.32226,25.5456 -0.70362,3.55536 -2.19648,7.48006 -3.38819,8.90748 -1.63959,1.96389 -2.69868,2.08473 -19.33073,2.20566 -8.11985,0.059 -17.00275,-0.013 -19.73978,-0.1602 z"
     id="path3793"
     inkscape:connector-curvature="0"
     transform="scale(0.74999999)" />
</svg>
