<?xml version="1.0" encoding="UTF-8" standalone="no"?>
<!-- Generator: Adobe Illustrator 15.1.0, SVG Export Plug-In  -->

<svg
   xmlns:dc="http://purl.org/dc/elements/1.1/"
   xmlns:cc="http://creativecommons.org/ns#"
   xmlns:rdf="http://www.w3.org/1999/02/22-rdf-syntax-ns#"
   xmlns:svg="http://www.w3.org/2000/svg"
   xmlns="http://www.w3.org/2000/svg"
   xmlns:sodipodi="http://sodipodi.sourceforge.net/DTD/sodipodi-0.dtd"
   xmlns:inkscape="http://www.inkscape.org/namespaces/inkscape"
   version="1.1"
   x="0px"
   y="0px"
   width="1386px"
   height="180px"
   viewBox="-14.625 -9 1386 180"
   enable-background="new -14.625 -9 1386 180"
   xml:space="preserve"
   id="svg36"
   sodipodi:docname="pc98.svg"
   inkscape:version="0.92.5 (2060ec1f9f, 2020-04-08)"><metadata
   id="metadata40"><rdf:RDF><cc:Work
       rdf:about=""><dc:format>image/svg+xml</dc:format><dc:type
         rdf:resource="http://purl.org/dc/dcmitype/StillImage" /></cc:Work></rdf:RDF></metadata><sodipodi:namedview
   pagecolor="#ffffff"
   bordercolor="#666666"
   borderopacity="1"
   objecttolerance="10"
   gridtolerance="10"
   guidetolerance="10"
   inkscape:pageopacity="0"
   inkscape:pageshadow="2"
   inkscape:window-width="1920"
   inkscape:window-height="1031"
   id="namedview38"
   showgrid="false"
   inkscape:zoom="0.76730779"
   inkscape:cx="700.37234"
   inkscape:cy="90"
   inkscape:window-x="0"
   inkscape:window-y="25"
   inkscape:window-maximized="1"
   inkscape:current-layer="svg36" />
<defs
   id="defs2">
</defs>
<path
   fill-rule="evenodd"
   clip-rule="evenodd"
   d="M351.375,159.77h-36.5l29.533-59.521c-7.981,0-30.033-4.249-38.076-11.495  c-10.428-9.395-18.869-28.396-12.999-50.994c6.481-24.946,34.497-43.741,64.992-35.996c21.805,5.539,34.549,16.485,38.299,40.376  c1.727,11.003,1.013,21.703-6.193,37.881L351.375,159.77z M324.33,52.758c0,25.899,39.995,26.614,39.995,1  C364.325,27.016,324.33,26.766,324.33,52.758z"
   id="path4" />
<path
   fill-rule="evenodd"
   clip-rule="evenodd"
   d="M448.314,1.765c35.151-4.551,65.75,23.095,54.993,58.993  C501.625,66.372,492,78.373,492,78.373s14.699,13.6,16.307,22.38c6.706,36.626-20.935,58.203-48.994,58.992  c-29.72,0.838-62.426-19.279-55.993-56.992c0.87-5.1,4.273-9.96,6-12.999c1.74-3.063,9.931-11.381,9.931-11.381  s-10.901-17.317-11.931-24.614C403.559,27.106,419.456,5.501,448.314,1.765z M441.315,45.791c0,19.225,28.997,18.975,28.997,0.968  C470.312,26.391,441.315,26.141,441.315,45.791z M456.304,129.748c22.679,0,22.8-33.995-0.388-33.995  C432.655,95.753,433.26,129.748,456.304,129.748z"
   id="path6" />
<path
   fill-rule="evenodd"
   clip-rule="evenodd"
   d="M570.299,1.765c17.755-1.81,33.311,4.689,41.995,12.999  c26.06,24.935,30.287,106.69-1,133.983c-12.841,11.201-39.696,17.006-59.993,7c-19.53-9.629-31.006-35.318-32.996-64.993  C515.19,44.285,528.583,6.017,570.299,1.765z M576.298,129.748c31.296-0.674,30.004-104.999-5-95.987  C546.44,40.161,546.878,130.383,576.298,129.748z"
   id="path8" />
<path
   fill-rule="evenodd"
   clip-rule="evenodd"
   d="M694.058,0.671c17.755-1.81,33.311,4.689,41.995,12.999  c26.061,24.935,30.287,106.69-1,133.983c-12.841,11.201-39.696,17.006-59.993,7c-19.53-9.629-31.006-35.318-32.996-64.993  C638.949,43.191,652.341,4.923,694.058,0.671z M700.057,128.654c31.297-0.674,30.004-104.999-4.999-95.987  C670.199,39.067,670.637,129.289,700.057,128.654z"
   id="path10" />
<path
   fill-rule="evenodd"
   clip-rule="evenodd"
   d="M199.345,3.024V34c-84.938-22.833-84.368,114.5-1.14,91.754v30.996  C69.355,189,68.785-26.667,199.345,3.024z"
   id="path12" />
<path
   fill-rule="evenodd"
   clip-rule="evenodd"
   d="M40.256,96l0.108-30.918c15.01,0,23.997-5.203,23.997-16.088  c0-9-1.487-17.866-31.862-17.866l0.125,128.622H0L0.37,0l31.505,0.003C92.375,0.209,99.5,24.5,99.5,47.994  C99.5,81.755,75.875,96,40.256,96z"
   id="path14" />
<polygon
   fill-rule="evenodd"
   clip-rule="evenodd"
   points="846.265,11.764 846.265,41.76 776.273,41.76 776.273,11.683   846.265,11.764 "
   id="polygon16" />
<path
   fill-rule="evenodd"
   clip-rule="evenodd"
   d="M1305.875,158.618h-33.125c-3.75-15.854-25.623-44.344-25.623-44.344  l-36.465,37.649c-6.589,6.589-18.636,6.694-31.037,6.694h-10.4v-28.243l6.999,0.015c7.53,0,14.165-0.626,19.909-6.369l63.738-67.066  c6.784-6.784,3.129-16.439-8.561-16.439l-82.086,0.187V11.765h82.65c40,0,51.799,42.711,37.227,58.212l-20.751,21.727  C1268.351,91.705,1303.875,142.624,1305.875,158.618z"
   id="path18" />
<polygon
   fill-rule="evenodd"
   clip-rule="evenodd"
   points="958.25,11.683 958.25,81.754 926.255,81.754 926.255,11.683   958.25,11.683 "
   id="polygon20" />
<path
   fill-rule="evenodd"
   clip-rule="evenodd"
   d="M1038.24,11.683v91.208c0,30.75-23.115,53.855-51.74,53.855h-60.245V126.75  l56.005-0.109c15.49,0,24.116-8.23,24.117-24.875c0-16.756,0.123-90.083,0.123-90.083H1038.24z"
   id="path22" />
<path
   fill-rule="evenodd"
   clip-rule="evenodd"
   d="M908.875,19.766V102.5c0,31.5-28.75,54.246-54.5,54.246h-78.102V124.75  l77.852-0.051c13.25,0,23.252-7.199,23.252-21.717l0.123-83.216H908.875z"
   id="path24" />
<polygon
   fill-rule="evenodd"
   clip-rule="evenodd"
   points="846.265,87.756 776.273,87.754 776.273,57.933 846.265,57.891 "
   id="polygon26" />
<rect
   x="200.345"
   y="69.756"
   fill-rule="evenodd"
   clip-rule="evenodd"
   width="77.99"
   height="23.997"
   id="rect28" />
<polygon
   fill-rule="evenodd"
   clip-rule="evenodd"
   points="1176.224,70.756 1176.224,99.752 1051.239,99.752 1051.239,70.756   1176.224,70.756 "
   id="polygon30" />
<circle
   fill-rule="evenodd"
   clip-rule="evenodd"
   fill="#060606"
   cx="1316.706"
   cy="24.114"
   r="13.032"
   id="circle32" />
<circle
   fill-rule="evenodd"
   clip-rule="evenodd"
   fill="#060606"
   cx="1349.568"
   cy="24.114"
   r="13.032"
   id="circle34" />
<path
   style="fill:#ffffff;stroke:#ffffff;stroke-width:1.30325794"
   d="M 15.119296,88.827068 V 9.9799601 h 23.995627 c 36.426306,0 53.977733,4.5030659 64.603917,16.5750449 6.89182,7.829524 9.1448,15.189483 9.1448,29.873885 0,14.200272 -2.78747,23.230632 -9.64306,31.239843 -8.016774,9.365797 -25.032894,16.081987 -40.858183,16.126537 l -6.842104,0.0193 V 89.582247 75.349961 l 3.909774,-0.755181 c 2.150375,-0.415348 5.653302,-1.091524 7.78428,-1.502613 2.130979,-0.411088 5.649776,-2.405783 7.819548,-4.432654 3.532602,-3.299943 3.945041,-4.492435 3.945041,-11.406341 0,-6.346891 -0.521905,-8.196484 -2.93233,-10.391953 C 71.027181,42.289413 67.262119,41.012534 56.65772,40.285693 L 46.397487,39.582441 v 64.045869 64.04587 H 30.758391 15.119296 Z"
   id="path42"
   inkscape:connector-curvature="0"
   transform="translate(-14.625,-9)" /><path
   style="fill:#ffffff;stroke:#ffffff;stroke-width:1.30325794"
   d="m 177.99757,167.70719 c -23.41966,-3.02506 -41.18755,-16.10028 -52.19395,-38.40904 -19.79372,-40.119689 -4.94128,-94.181718 30.6364,-111.514762 12.96494,-6.31637 22.86843,-8.2305606 38.52888,-7.447029 7.52631,0.376561 14.71052,1.099631 15.96491,1.606821 1.98291,0.801759 2.2807,2.842756 2.2807,15.631663 v 14.7095 l -5.53885,-1.287495 c -8.31607,-1.933056 -24.11807,-0.514136 -31.16529,2.798448 -13.87967,6.524214 -23.03527,19.323313 -26.03164,36.391003 -3.77572,21.506991 6.89633,44.479761 24.73207,53.238541 6.75074,3.31516 8.62546,3.6216 22.07856,3.60895 l 14.70142,-0.0138 -0.36558,14.29359 -0.36558,14.29358 -4.5614,0.88181 c -8.30402,1.60534 -21.40017,2.16122 -28.70065,1.21824 z"
   id="path44"
   inkscape:connector-curvature="0"
   transform="translate(-14.625,-9)" /><path
   style="fill:#ffffff;stroke:#ffffff;stroke-width:1.30325794"
   d="M 215.82102,90.781955 V 79.052633 h 38.44611 38.44611 v 11.729322 11.729325 h -38.44611 -38.44611 z"
   id="path46"
   inkscape:connector-curvature="0"
   transform="translate(-14.625,-9)" /><path
   style="fill:#ffffff;stroke:#ffffff;stroke-width:1.30325794"
   d="m 344.83789,139.01383 c 7.88783,-15.76319 14.34151,-28.9321 14.34151,-29.26425 0,-0.33215 -2.19925,-0.95906 -4.88722,-1.39314 -19.00466,-3.06903 -29.04553,-7.22304 -35.93078,-14.864901 -8.5576,-9.497988 -10.57798,-15.590774 -10.62216,-32.032889 -0.0346,-12.881761 0.31682,-15.094044 3.46485,-21.811052 10.53813,-22.485371 38.61406,-34.8471852 63.02619,-27.750389 23.63258,6.87018 35.01554,20.868073 36.72904,45.166599 1.00933,14.31293 -1.63383,21.661503 -24.98032,69.450932 l -20.10755,41.15944 H 348.18392 330.49639 Z M 370.5121,79.10998 c 6.21547,-3.789814 8.77998,-8.5487 8.74061,-16.219719 -0.0641,-12.497526 -7.69656,-20.446018 -19.6956,-20.511214 -8.07917,-0.04389 -12.19259,1.617088 -16.40632,6.624819 -8.31577,9.88273 -5.12152,25.897962 6.14364,30.802816 6.04597,2.632415 16.31053,2.295367 21.21767,-0.696702 z"
   id="path48"
   inkscape:connector-curvature="0"
   transform="translate(-14.625,-9)" /><path
   style="fill:#ffffff;stroke:#ffffff;stroke-width:1.30325794"
   d="m 455.62049,165.85759 c -15.28711,-4.2766 -26.86466,-13.18419 -33.45509,-25.73981 -3.22684,-6.14755 -3.66408,-8.37871 -3.66641,-18.70926 -0.003,-13.28141 1.7512,-17.86056 10.70909,-27.95485 l 5.14346,-5.795946 -5.98206,-11.56486 c -5.62292,-10.870544 -5.97771,-12.165579 -5.90944,-21.570713 0.19699,-27.138979 20.89549,-44.489364 51.27798,-42.983428 9.19703,0.455859 12.74924,1.296371 19.81598,4.688788 14.91867,7.161775 24.18044,20.032104 25.58828,35.557943 0.91909,10.135938 -1.39617,18.504856 -7.65671,27.676548 l -5.19474,7.610301 3.66232,4.546345 c 11.78732,14.632582 13.416,18.177192 13.42949,29.227512 0.0238,19.5404 -14.14027,38.14188 -33.6889,44.243 -9.53621,2.97625 -24.93949,3.32364 -34.07325,0.76843 z m 26.86434,-31.13544 c 3.73325,-3.42127 4.80922,-5.5095 5.36095,-10.40447 1.23592,-10.96508 -4.3005,-18.38425 -14.7685,-19.79077 -10.93459,-1.46921 -20.0633,6.0325 -20.0633,16.48743 0,10.75751 7.46076,17.97456 18.59056,17.98329 5.20576,0.004 6.96469,-0.6871 10.88029,-4.27548 z m -1.38961,-68.759586 c 6.50218,-6.108485 5.1604,-18.840589 -2.47626,-23.497147 -10.77251,-6.568688 -22.99847,0.04328 -22.99847,12.43789 0,6.12379 1.76056,9.317115 6.92528,12.561169 5.40117,3.392571 14.08822,2.689197 18.54945,-1.501912 z"
   id="path50"
   inkscape:connector-curvature="0"
   transform="translate(-14.625,-9)" /><path
   style="fill:#ffffff;stroke:#ffffff;stroke-width:1.30325794"
   d="m 576.01896,167.81258 c -13.42327,-3.44194 -25.38549,-14.06192 -32.66305,-28.99799 -14.67938,-30.12718 -13.23794,-80.414427 3.00652,-104.887745 5.85587,-8.822231 10.71684,-12.91464 21.33825,-17.964471 7.8742,-3.7437 9.48145,-4.027527 22.80701,-4.027527 13.38224,0 14.91308,0.273484 23.01375,4.111392 4.77285,2.261265 10.95924,6.46214 13.74752,9.335277 24.05035,24.782243 26.61631,95.452704 4.52892,124.733334 -4.99014,6.61528 -15.45887,13.87383 -23.67833,16.41748 -5.84485,1.80879 -26.78274,2.64385 -32.10059,1.28025 z m 24.09699,-32.12839 c 4.6687,-3.92845 9.72117,-14.16075 11.74616,-23.78844 2.06816,-9.83289 1.77713,-34.561309 -0.5215,-44.311241 -4.52059,-19.174702 -14.56086,-28.813521 -26.06034,-25.018352 -9.97344,3.291535 -16.11582,17.936904 -17.21579,41.047879 -1.59242,33.457834 7.63325,55.367624 23.32066,55.383594 3.23321,0.003 6.06738,-1.07231 8.73081,-3.31344 z"
   id="path52"
   inkscape:connector-curvature="0"
   transform="translate(-14.625,-9)" /><path
   style="fill:#ffffff;stroke:#ffffff;stroke-width:1.30325794"
   d="m 697.37485,165.92175 c -8.73845,-2.88196 -12.78336,-5.51438 -19.6829,-12.80962 -11.52147,-12.18225 -17.75269,-28.81187 -20.10717,-53.661148 -2.95927,-31.232168 4.31595,-59.930157 18.8867,-74.500904 18.59174,-18.5917463 52.93031,-19.8304597 72.09397,-2.600685 15.11174,13.586752 23.84576,43.676541 22.05433,75.979924 -1.90297,34.314793 -14.093,57.650233 -34.18758,65.445463 -9.54794,3.70389 -30.79518,4.87185 -39.05735,2.14697 z m 25.89032,-30.92434 c 5.10531,-4.01584 9.58212,-12.51022 11.98512,-22.74077 3.02928,-12.89695 1.98892,-41.062194 -1.92704,-52.169924 C 728.10731,45.29156 719.40854,38.579289 709.129,41.417607 c -5.72394,1.580454 -10.01994,7.181109 -13.87307,18.086156 -2.61706,7.406754 -2.9995,11.009417 -3.04363,28.671676 -0.0448,17.927851 0.30419,21.283381 3.10207,29.825741 2.15569,6.58167 4.6675,11.2178 7.94357,14.66166 4.18266,4.39689 5.53901,5.0364 10.68171,5.0364 3.98658,0 7.00098,-0.87334 9.32552,-2.70183 z"
   id="path54"
   inkscape:connector-curvature="0"
   transform="translate(-14.625,-9)" /><path
   style="fill:#ffffff;stroke:#ffffff;stroke-width:1.30325794"
   d="M 791.86105,81.659149 V 67.323311 h 34.53634 34.53633 v 14.335838 14.335838 h -34.53633 -34.53634 z"
   id="path56"
   inkscape:connector-curvature="0"
   transform="translate(-14.625,-9)" /><path
   style="fill:#ffffff;stroke:#ffffff;stroke-width:1.30325794"
   d="M 791.86105,36.04512 V 21.709282 h 34.53634 34.53633 V 36.04512 50.380957 h -34.53633 -34.53634 z"
   id="path58"
   inkscape:connector-curvature="0"
   transform="translate(-14.625,-9)" /><path
   style="fill:#ffffff;stroke:#ffffff;stroke-width:1.30325794"
   d="m 791.86105,149.42856 v -15.63909 l 42.6817,-0.0214 c 61.94152,-0.0311 57.66916,4.38297 57.66916,-59.582281 V 29.52883 h 15.75312 15.75311 l -0.5034,45.939844 c -0.48544,44.299766 -0.6108,46.211736 -3.51147,53.555656 -6.01652,15.23255 -20.5073,28.56841 -36.36444,33.46619 -7.57307,2.33907 -12.18354,2.57714 -49.9108,2.57714 h -41.56698 z"
   id="path60"
   inkscape:connector-curvature="0"
   transform="translate(-14.625,-9)" /><path
   style="fill:#ffffff;stroke:#ffffff;stroke-width:1.30325794"
   d="M 941.73572,56.245618 V 21.709282 h 14.98746 14.98747 v 34.536336 34.536337 h -14.98747 -14.98746 z"
   id="path62"
   inkscape:connector-curvature="0"
   transform="translate(-14.625,-9)" /><path
   style="fill:#ffffff;stroke:#ffffff;stroke-width:1.30325794"
   d="m 941.73572,150.81442 v -14.25324 l 32.25563,-0.40841 c 37.06895,-0.46936 38.98855,-0.9661 44.31075,-11.46626 2.8851,-5.69195 2.9324,-6.56829 2.9324,-54.381201 V 21.709282 h 15.721 15.7211 l -0.4308,51.152876 c -0.4206,49.935162 -0.5027,51.332272 -3.4495,58.688722 -6.0001,14.97849 -18.0161,26.38441 -32.5863,30.93177 -7.3456,2.29255 -12.0272,2.58501 -41.37848,2.58501 h -33.0958 z"
   id="path64"
   inkscape:connector-curvature="0"
   transform="translate(-14.625,-9)" /><path
   style="fill:#ffffff;stroke:#ffffff;stroke-width:1.30325794"
   d="M 1066.8485,94.0401 V 80.355891 h 61.9047 61.9048 V 94.0401 107.72431 h -61.9048 -61.9047 z"
   id="path66"
   inkscape:connector-curvature="0"
   transform="translate(-14.625,-9)" /><path
   style="fill:#ffffff;stroke:#ffffff;stroke-width:1.30325794"
   d="M 1184.1417,153.52736 V 140.6838 l 8.8437,-0.74143 c 4.8641,-0.40778 10.4438,-1.47047 12.3995,-2.36153 1.9556,-0.89106 19.0887,-17.96347 38.0736,-37.938694 31.2363,-32.865943 34.5178,-36.738945 34.5178,-40.740408 0,-3.224699 -0.9297,-5.153099 -3.4339,-7.122932 -3.3182,-2.610053 -4.8997,-2.701107 -46.9173,-2.701107 h -43.4834 V 35.333502 21.589304 l 47.8947,0.385803 47.8948,0.385804 6.599,3.482718 c 16.2847,8.594524 25.7631,27.926185 21.3756,43.596727 -1.3279,4.742927 -4.2053,8.68697 -13.2072,18.103056 -6.3301,6.621434 -11.5093,12.467538 -11.5093,12.991348 0,0.52381 4.9174,8.66026 10.9276,18.08099 10.9367,17.14295 23.2358,39.30925 24.8701,44.82284 0.8687,2.93053 0.8593,2.9323 -15.1836,2.8973 l -16.0527,-0.0351 -3.8443,-8.60198 c -4.3881,-9.81853 -20.0878,-34.33546 -21.9872,-34.33546 -0.6945,0 -9.5315,8.59655 -19.6378,19.10343 -11.6856,12.14879 -20.2757,19.96684 -23.5958,21.47513 -4.0417,1.83613 -8.5315,2.37818 -19.8822,2.40034 l -14.6617,0.0286 z"
   id="path68"
   inkscape:connector-curvature="0"
   transform="translate(-14.625,-9)" /><path
   style="fill:#ffffff;stroke:#ffffff;stroke-width:1.30325794"
   d="m 1323.983,42.858245 c -9.4201,-7.402631 -4.3823,-21.741353 7.6386,-21.741353 6.8789,0 11.5176,4.920221 11.5176,12.216669 0,9.768508 -11.5426,15.507636 -19.1562,9.524684 z"
   id="path70"
   inkscape:connector-curvature="0"
   transform="translate(-14.625,-9)" /><path
   style="fill:#ffffff;stroke:#ffffff;stroke-width:1.30325794"
   d="m 1355.764,41.512653 c -5.9527,-6.213274 -4.4459,-15.293918 3.1933,-19.244307 10.1832,-5.26593 21.4539,6.052616 16.1809,16.249532 -3.9853,7.706621 -13.4573,9.170757 -19.3742,2.994775 z"
   id="path72"
   inkscape:connector-curvature="0"
   transform="translate(-14.625,-9)" /></svg>