<?xml version="1.0" encoding="UTF-8" standalone="no"?>
<svg
   xmlns:dc="http://purl.org/dc/elements/1.1/"
   xmlns:cc="http://creativecommons.org/ns#"
   xmlns:rdf="http://www.w3.org/1999/02/22-rdf-syntax-ns#"
   xmlns:svg="http://www.w3.org/2000/svg"
   xmlns="http://www.w3.org/2000/svg"
   xmlns:sodipodi="http://sodipodi.sourceforge.net/DTD/sodipodi-0.dtd"
   xmlns:inkscape="http://www.inkscape.org/namespaces/inkscape"
   id="engine"
   viewBox="0 0 480 120"
   version="1.1"
   sodipodi:docname="solarus.svg"
   inkscape:version="0.92.5 (2060ec1f9f, 2020-04-08)">
  <metadata
     id="metadata34">
    <rdf:RDF>
      <cc:Work
         rdf:about="">
        <dc:format>image/svg+xml</dc:format>
        <dc:type
           rdf:resource="http://purl.org/dc/dcmitype/StillImage" />
        <dc:title>logo</dc:title>
      </cc:Work>
    </rdf:RDF>
  </metadata>
  <defs
     id="defs32" />
  <sodipodi:namedview
     pagecolor="#ffffff"
     bordercolor="#666666"
     borderopacity="1"
     objecttolerance="10"
     gridtolerance="10"
     guidetolerance="10"
     inkscape:pageopacity="0"
     inkscape:pageshadow="2"
     inkscape:window-width="1920"
     inkscape:window-height="1031"
     id="namedview30"
     showgrid="false"
     inkscape:zoom="3.1333333"
     inkscape:cx="279.68423"
     inkscape:cy="60"
     inkscape:window-x="0"
     inkscape:window-y="25"
     inkscape:window-maximized="1"
     inkscape:current-layer="engine" />
  <title
     id="title2">logo</title>
  <g
     id="engine_logo">
    <g
       id="solarus_letters">
      <path
         id="solarus_letter_s2"
         d="M36,37.14q-9.78-3.31-12.3-5.36a6.18,6.18,0,0,1-2.51-4.94,6.93,6.93,0,0,1,3.32-6.28c2.21-1.39,5.22-2.09,9-2.09A38.42,38.42,0,0,1,50.07,22l1.28-14a53.32,53.32,0,0,0-8.21-2A58.67,58.67,0,0,0,33,5.16q-14,0-22,5.9t-8,16.75q0,9.23,5.21,14.06T24.1,50.13q8,2.68,10.72,5.21a7.49,7.49,0,0,1,2.69,5.53A6.91,6.91,0,0,1,33.92,67a17.23,17.23,0,0,1-9.29,2.26A37.42,37.42,0,0,1,13,67.36a33.07,33.07,0,0,1-7.63-3.17L4,79.22q3.65,1.08,9.44,2.2A62.85,62.85,0,0,0,25.6,82.55q13.73,0,21.84-6t8.11-16.85q0-8.91-4.36-14T36,37.14Z"
         style="fill:#1c1c1c" />
      <path
         id="solarus_letter_la"
         d="M245.78,6.45,221.91,68.06H192.18V6.45H174.57V81.37l60.25-.1,6.12-16.43h29.74l6,16.43H296L266.49,6.45Zm-.22,45.4,10.51-30.38,10.1,30.38Z"
         style="fill:#1c1c1c" />
      <path
         id="solarus_letter_r"
         d="M347.43,59.36q-1.6-4.39-3.81-9.12a10.42,10.42,0,0,0-6.92-6q7.85-1.6,11.48-6.65a18.67,18.67,0,0,0,3.65-11.17q0-10.2-7-15.08T324.68,6.45H296V81.27h17.61V50.88H319a8.46,8.46,0,0,1,6.76,2.74,20.08,20.08,0,0,1,3.75,6.93L337,81.27H355.9l-8-20.94Zm-17-23.67C328.18,37.24,325,38,321,38h-7.41V19.33h6.87c4.44,0,7.77.73,10,2.19s3.39,3.85,3.39,7.15A7.9,7.9,0,0,1,330.47,35.69Z"
         style="fill:#1c1c1c" />
      <path
         id="solarus_letter_u"
         d="M402.27,49.6q0,9.56-3.47,14.54t-10.91,5c-4.87,0-8.47-1.61-10.85-4.83s-3.53-7.9-3.53-14.06V6.45H355.9V53.57q0,14.28,8.27,21.63T388,82.55q15.88,0,23.88-7.62t8-23V6.45H402.27Z"
         style="fill:#1c1c1c" />
      <path
         id="solarus_letter_s"
         d="M472.17,45.73q-4.35-5-15.18-8.59c-6.51-2.21-10.62-4-12.3-5.36a6.15,6.15,0,0,1-2.51-4.94,6.93,6.93,0,0,1,3.32-6.28c2.21-1.39,5.22-2.09,9-2.09A38.33,38.33,0,0,1,471,22l1.29-14a53.61,53.61,0,0,0-8.21-2A58.67,58.67,0,0,0,454,5.16q-14,0-22,5.9t-8,16.75c0,6.15,1.75,10.84,5.21,14.06s8.75,6,15.85,8.26q8,2.68,10.72,5.21a7.49,7.49,0,0,1,2.69,5.53,6.9,6.9,0,0,1-3.6,6.11,17.23,17.23,0,0,1-9.29,2.26A37.41,37.41,0,0,1,434,67.36c-3.86-1.25-6.42-2.31-7.64-3.17l-1.38,15c2.43.72,5.57,1.45,9.44,2.2a62.77,62.77,0,0,0,12.14,1.13q13.73,0,21.84-6t8.09-16.85Q476.51,50.78,472.17,45.73Z"
         style="fill:#1c1c1c" />
    </g>
    <path
       id="logo"
       d="M114.1,0A53.48,53.48,0,0,0,68.34,81.29h3.07l40.64-40.64c3.72,3.71,8.82-1.3,10.3-2.93l-2.55-2.55c-3.54-3.52-6.57,1.87-6.57,1.87l-7.74-7.75s12.08-5.51,18.65,1.06c2.35,2.36,3.89,3.9,4.92,4.92l9-9a6.68,6.68,0,1,1,4,4l-9,9,4.89,4.9c6.58,6.57,1.05,18.65,1.05,18.65l-7.74-7.75s5.39-3,1.87-6.57L130.58,46c-1.63,1.49-6.64,6.59-2.92,10.3l-25,25h57.24A53.49,53.49,0,0,0,114.1,0Z"
       style="fill:#ffbc00" />
    <g
       id="catchphrase_letters">
      <path
         id="catchphrase_letter_a"
         d="M32.44,119.53H25.26L23,113.41H12l-2.28,6.12H3L13.77,91.71h7.7Zm-11.1-10.94L17.6,97.31l-3.91,11.28Z"
         style="fill:#1c1c1c" />
      <path
         id="catchphrase_letter_n"
         d="M53.91,111.54V91.71H60v27.82H52.11l-.23-.44L41.74,99.86v19.67H35.59V91.71h8.14Z"
         style="fill:#1c1c1c" />
      <path
         id="catchphrase_letter_a2"
         d="M104.26,119.53H97.08l-2.23-6.12H83.79l-2.27,6.12h-6.7L85.59,91.71h7.7ZM93.17,108.59,89.41,97.31,85.5,108.59Z"
         style="fill:#1c1c1c" />
      <path
         id="catchphrase_letter_r"
         d="M113.64,108.22v11.31h-6.55V91.71h10.65c3.27,0,5.78.62,7.51,1.82a6.37,6.37,0,0,1,2.58,5.61,6.94,6.94,0,0,1-1.34,4.14,6.68,6.68,0,0,1-4.28,2.48,3.87,3.87,0,0,1,2.57,2.24c.55,1.17,1,2.3,1.42,3.39l.17.36,3,7.78h-7l-2.8-7.71a7.38,7.38,0,0,0-1.41-2.56,3.09,3.09,0,0,0-2.51-1Zm0-4.78h2.74a6.16,6.16,0,0,0,3.51-.86,2.89,2.89,0,0,0,1.29-2.6,3,3,0,0,0-1.25-2.66,7,7,0,0,0-3.75-.82h-2.54Z"
         style="fill:#1c1c1c" />
      <path
         id="catchphrase_letter_p"
         d="M139.21,109.34v10.19h-6.55V91.71h8.55c3.74,0,6.6.72,8.56,2.14s3,3.6,3,6.53a8.19,8.19,0,0,1-2.8,6.64q-2.79,2.33-7.78,2.32Zm0-4.85,2.23.07a5.11,5.11,0,0,0,3.45-1.07,3.75,3.75,0,0,0,1.26-3,3.56,3.56,0,0,0-1.28-2.92,5.33,5.33,0,0,0-3.43-1h-2.23Z"
         style="fill:#1c1c1c" />
      <path
         id="catchphrase_letter_g"
         d="M162.06,105.67a9.09,9.09,0,0,0,2.61,6.8,9.29,9.29,0,0,0,6.82,2.55,9.54,9.54,0,0,0,1.93-.16,8.85,8.85,0,0,0,1.34-.36v-6.15h-5v-4.83h11.34v15a38.42,38.42,0,0,1-4.21,1,29.62,29.62,0,0,1-5.5.51q-7.53,0-11.79-3.77c-2.83-2.5-4.25-6-4.25-10.59s1.46-8.12,4.37-10.62,6.94-3.78,12.07-3.78a32.33,32.33,0,0,1,4.89.33,18,18,0,0,1,3.66,1v.28l-.44,5.1a13.54,13.54,0,0,0-3.44-1.26,17.36,17.36,0,0,0-3.83-.42,11.17,11.17,0,0,0-7.7,2.54A8.85,8.85,0,0,0,162.06,105.67Z"
         style="fill:#1c1c1c" />
      <path
         id="catchphrase_letter_g2"
         d="M203.76,105.67a9.13,9.13,0,0,0,2.6,6.8,9.3,9.3,0,0,0,6.83,2.55,9.67,9.67,0,0,0,1.93-.16,8.39,8.39,0,0,0,1.33-.36v-6.15h-5v-4.83h11.32v15a36.83,36.83,0,0,1-4.21,1,29.36,29.36,0,0,1-5.49.51q-7.53,0-11.79-3.77c-2.83-2.5-4.24-6-4.24-10.59s1.46-8.12,4.37-10.62,6.93-3.78,12.07-3.78a32.19,32.19,0,0,1,4.88.33,17.5,17.5,0,0,1,3.65,1v.28l-.44,5.1a13.2,13.2,0,0,0-3.43-1.26,17.4,17.4,0,0,0-3.82-.42,11.21,11.21,0,0,0-7.71,2.54A8.81,8.81,0,0,0,203.76,105.67Z"
         style="fill:#1c1c1c" />
      <path
         id="catchphrase_letter_a3"
         d="M255.15,119.53H248l-2.24-6.12h-11l-2.28,6.12h-6.7l10.77-27.82h7.71Zm-11.1-10.94-3.74-11.28-3.91,11.28Z"
         style="fill:#1c1c1c" />
      <path
         id="catchphrase_letter_m"
         d="M281.48,91.71h9.85v27.82H285l.07-22.07-7.46,21.63h-5.82l-7.32-21.66.09,22.1h-6.34V91.71h10.13l6.46,19.4Z"
         style="fill:#1c1c1c" />
      <path
         id="catchphrase_letter_e"
         d="M315.35,119.53H296.92V91.71h18.21V96.5H303.47v6.34h10.8v4.79h-10.8v7.06h11.88Z"
         style="fill:#1c1c1c" />
      <path
         id="catchphrase_letter_e2"
         d="M350.38,119.53H332V91.71h18.19V96.5H338.5v6.34h10.82v4.79H338.5v7.06h11.88Z"
         style="fill:#1c1c1c" />
      <path
         id="catchphrase_letter_n2"
         d="M373.72,111.54V91.71h6.15v27.82h-7.93l-.26-.44L361.55,99.86v19.67h-6.14V91.71h8.15Z"
         style="fill:#1c1c1c" />
      <path
         id="catchphrase_letter_g3"
         d="M391.16,105.67a9.13,9.13,0,0,0,2.6,6.8,9.29,9.29,0,0,0,6.82,2.55,9.71,9.71,0,0,0,1.94-.16,7.7,7.7,0,0,0,1.32-.36v-6.15h-5v-4.83h11.34v15a36.83,36.83,0,0,1-4.21,1,29.33,29.33,0,0,1-5.48.51q-7.53,0-11.8-3.77c-2.83-2.5-4.24-6-4.24-10.59s1.45-8.12,4.36-10.62,6.94-3.78,12.08-3.78a32.43,32.43,0,0,1,4.89.33,17.29,17.29,0,0,1,3.63,1v.28L409,97.9a13.41,13.41,0,0,0-3.44-1.26,17.27,17.27,0,0,0-3.82-.42A11.2,11.2,0,0,0,394,98.76,8.81,8.81,0,0,0,391.16,105.67Z"
         style="fill:#1c1c1c" />
      <path
         id="catchphrase_letter_i"
         d="M422.24,119.53h-6.55V91.71h6.55Z"
         style="fill:#1c1c1c" />
      <path
         id="catchphrase_letter_n-2"
         data-name="catchphrase_letter_n"
         d="M446.25,111.54V91.71h6.15v27.82h-7.94l-.24-.44L434.09,99.86v19.67H428V91.71h8.13Z"
         style="fill:#1c1c1c" />
      <path
         id="catchphrase_letter_e-2"
         data-name="catchphrase_letter_e"
         d="M476.51,119.53H458.08V91.71h18.2V96.5H464.63v6.34h10.79v4.79H464.63v7.06h11.88Z"
         style="fill:#1c1c1c" />
    </g>
  </g>
  <path
     style="fill:#ffffff;stroke:#ffffff;stroke-width:1.27659571"
     d="M 65.445928,73.876331 C 60.699188,63.508085 60.029835,50.009355 63.66844,38.030041 73.483291,5.7167796 111.92778,-9.1803294 141.24747,7.9684312 c 7.85725,4.5956158 16.69052,14.7342128 21.28234,24.4273188 3.70157,7.813816 4.06132,9.669787 4.01443,20.710633 -0.042,9.887595 -0.63261,13.542437 -3.19763,19.787234 l -3.14613,7.659574 -28.07896,0.34478 -28.07897,0.344779 11.94479,-11.994972 c 9.38776,-9.427198 11.77265,-12.537337 11.14066,-14.528555 -0.49366,-1.555388 0.0907,-3.638651 1.51353,-5.39577 2.0534,-2.535851 2.50353,-2.638218 3.94793,-0.897827 1.26834,1.528257 1.29789,2.585411 0.13313,4.761795 -1.30398,2.436501 -0.9935,3.301075 2.40634,6.700922 l 3.90349,3.903485 1.33485,-3.510935 c 2.48124,-6.526147 1.62964,-11.856309 -2.67815,-16.762613 l -4.013,-4.570562 3.61354,-3.771731 c 1.98746,-2.074453 4.94224,-3.771732 6.5662,-3.771732 3.18099,0 8.05903,-4.077971 8.05903,-6.737226 0,-3.519231 -3.99195,-7.305327 -7.70253,-7.305327 -3.79011,0 -8.61825,5.006114 -7.13803,7.401156 0.38426,0.621751 -1.28692,3.054956 -3.71374,5.407122 l -4.4124,4.276665 -3.51665,-3.345037 c -4.57502,-4.351765 -8.93003,-5.335106 -15.63365,-3.53001 l -5.43859,1.46446 4.22613,4.360259 c 3.78573,3.905877 4.44369,4.163374 6.31379,2.470953 1.84346,-1.668309 2.37588,-1.666517 4.55167,0.01533 2.42991,1.878279 2.42867,1.931919 -0.0892,3.876454 -1.40425,1.084501 -3.72755,1.677688 -5.16288,1.318195 -2.05366,-0.514361 -6.94644,3.689487 -22.963761,19.730308 -11.194737,11.211161 -20.823434,20.38393 -21.397104,20.38393 -0.57367,0 -2.550082,-3.29182 -4.392027,-7.315158 z"
     id="path36"
     inkscape:connector-curvature="0" />
  <path
     style="fill:#ffffff;stroke:#ffffff;stroke-width:1.27659571"
     d="M 15.957447,81.082069 C 11.744681,80.450937 7.5797872,79.660929 6.7021277,79.326494 4.9847611,78.672084 4.3763853,65.861805 6.0638298,65.886158 c 0.5265957,0.0077 3.7774709,0.869303 7.2241672,1.914894 C 28.264785,72.344418 40.622376,67.547726 37.695821,58.32697 36.731225,55.287797 33.106864,52.907908 24.893617,49.920574 9.703813,44.395717 3.8297872,38.1759 3.8297872,27.61676 c 0,-13.325603 11.4121608,-21.7904893 29.2742568,-21.7139643 6.339102,0.027158 16.181962,1.5799447 17.306644,2.7302557 0.949381,0.9710165 -1.035334,12.4545636 -2.04472,11.8307286 -0.60223,-0.372198 -4.383818,-1.211999 -8.403528,-1.866223 -12.858216,-2.092729 -20.904516,2.07754 -18.959654,9.826487 0.584218,2.327714 2.723597,4.007567 8.087273,6.350176 4.011106,1.751868 10.067864,4.415251 13.459462,5.918631 7.850769,3.479978 11.37464,8.40003 12.076289,16.860994 1.425679,17.191815 -14.852109,27.096228 -38.668363,23.528224 z"
     id="path38"
     inkscape:connector-curvature="0" />
  <path
     style="fill:#ffffff;stroke:#ffffff;stroke-width:1.27659571"
     d="M 174.89362,44.170213 V 7.1489362 h 8.29787 8.29787 V 37.826526 68.504117 l 15.594,-0.358442 15.59399,-0.358441 11.6032,-30 11.6032,-30 10.14323,-0.3552157 10.14323,-0.3552156 13.66563,34.8233013 c 7.51609,19.152814 14.04032,35.828619 14.49828,37.057343 0.74339,1.994516 -0.12776,2.234042 -8.12507,2.234042 h -8.95774 l -2.97594,-8.297872 -2.97594,-8.297872 h -15.50959 -15.50959 l -2.9294,8.297872 -2.9294,8.297872 h -29.76392 -29.76391 z m 91.60063,6.06383 c -0.32308,-0.87766 -2.46665,-7.340426 -4.76349,-14.361703 -2.29684,-7.021276 -4.59291,-13.225538 -5.10237,-13.787249 -0.50946,-0.561711 -3.11668,5.18297 -5.79381,12.765958 -2.67714,7.582987 -5.12264,14.505334 -5.43444,15.382994 -0.42557,1.197884 2.20663,1.595744 10.55731,1.595744 8.3616,0 10.97834,-0.396291 10.5368,-1.595744 z"
     id="path40"
     inkscape:connector-curvature="0" />
  <path
     style="fill:#ffffff;stroke:#ffffff;stroke-width:1.27659571"
     d="M 296.17021,44.170213 V 7.1489362 l 18.19149,0.055877 c 22.01987,0.067636 29.24257,1.9588853 33.91396,8.8802928 4.28931,6.355306 3.48871,16.307246 -1.75191,21.777276 -2.02787,2.116643 -4.99551,4.176847 -6.59476,4.578231 -3.58099,0.898772 -3.58077,0.940485 0.0236,4.544888 2.2884,2.288402 14.941,30.720262 14.941,33.574167 0,0.347502 -3.92754,0.631821 -8.72787,0.631821 h -8.72787 l -4.2857,-12.433326 C 328.05908,53.982664 325.19159,50.553191 317.93037,50.553191 h -5.16441 V 65.87234 81.191489 h -8.29787 -8.29788 z m 35.22594,-9.048483 c 3.02634,-2.843105 3.83407,-6.628957 2.27894,-10.681557 -1.26769,-3.303548 -7.49545,-5.801875 -14.46276,-5.801875 h -6.44637 v 10.390071 10.39007 l 7.77912,-0.705386 c 5.6581,-0.513059 8.61671,-1.492257 10.85107,-3.591323 z"
     id="path42"
     inkscape:connector-curvature="0" />
  <path
     style="fill:#ffffff;stroke:#ffffff;stroke-width:1.27659571"
     d="m 377.83422,80.786636 c -8.8658,-1.977096 -14.54068,-5.97085 -18.17065,-12.787762 -2.62737,-4.93408 -2.86349,-7.322625 -3.2705,-33.08398 L 355.95439,7.1489362 h 8.31169 8.31168 L 372.99101,33 c 0.3393,21.225047 0.79589,26.549036 2.55155,29.751466 4.18989,7.64262 14.95381,9.367694 21.46469,3.440023 5.17359,-4.710173 6.39701,-12.006832 6.39701,-38.152966 V 7.1489362 h 7.65957 7.65957 V 34.345093 c 0,26.647343 -0.0662,27.329007 -3.28062,33.779502 -2.71958,5.457503 -4.41153,7.124865 -9.89361,9.749863 -8.16012,3.907329 -18.41872,4.985262 -27.71495,2.912178 z"
     id="path44"
     inkscape:connector-curvature="0" />
  <path
     style="fill:#ffffff;stroke:#ffffff;stroke-width:1.27659571"
     d="M 437.87234,81.232383 C 425.67752,79.62167 425.6853,79.628036 426.18038,71.661637 l 0.43571,-7.010913 3.92023,2.027231 c 5.47252,2.829948 17.78893,3.763239 22.71814,1.721492 2.18988,-0.907077 4.52301,-3.073232 5.18472,-4.813675 1.78184,-4.686592 -1.60096,-8.877471 -10.14307,-12.566027 -20.32458,-8.776328 -23.17686,-11.642099 -23.18495,-23.294595 -0.006,-8.963585 3.32269,-14.373676 11.21357,-18.2240433 6.70356,-3.2710117 20.39602,-4.5486404 28.99442,-2.7054384 l 5.10638,1.0946332 0.39157,6.8149635 c 0.35212,6.128467 0.15922,6.725216 -1.9149,5.924026 -10.21673,-3.94652 -23.3139,-3.037249 -25.90177,1.798228 -3.59938,6.725507 -0.94103,9.711167 13.62493,15.302517 12.04893,4.625151 17.52617,9.759125 18.86482,17.682518 3.02794,17.922215 -13.18089,29.047503 -37.61784,25.819829 z"
     id="path46"
     inkscape:connector-curvature="0" />
  <path
     style="fill:#ffffff;stroke:#ffffff;stroke-width:0.31914893"
     d="m 3.4599797,118.9888 c 0,-0.13488 2.3357933,-6.27451 5.1906517,-13.64361 L 13.841283,91.946809 h 3.780343 3.780342 l 4.845133,12.287231 c 2.664822,6.75798 5.089478,12.89761 5.388123,13.64362 l 0.542992,1.35638 h -3.444192 -3.444192 l -1.101096,-3.03168 -1.101097,-3.03168 -5.601031,-2.3e-4 -5.601031,-2.4e-4 -1.101097,3.03168 -1.101096,3.03169 -3.1117021,2.3e-4 c -1.7114362,1.3e-4 -3.1117022,-0.11013 -3.1117022,-0.24501 z M 21.33232,108.39746 c 0,-0.84458 -3.597169,-11.221249 -3.807418,-10.983176 -0.269687,0.305377 -3.852156,10.533516 -3.852156,10.998106 0,0.15936 1.723404,0.28974 3.829787,0.28974 2.219097,0 3.829787,-0.12814 3.829787,-0.30467 z"
     id="path48"
     inkscape:connector-curvature="0" />
  <path
     style="fill:#ffffff;stroke:#ffffff;stroke-width:0.31914893"
     d="M 35.694022,105.51064 V 91.787234 h 3.964755 3.964756 l 5.051202,9.891476 c 2.778161,5.44031 5.158915,9.89243 5.290564,9.89361 0.131649,10e-4 0.239362,-4.44998 0.239362,-9.89147 v -9.893616 h 2.87234 2.87234 v 13.723406 13.7234 l -3.909574,-10e-4 -3.909574,-0.001 -5.106383,-9.69954 c -2.808511,-5.33478 -5.214096,-9.634216 -5.345745,-9.554341 -0.131649,0.07987 -0.239362,4.445261 -0.239362,9.700861 v 9.55563 h -2.87234 -2.872341 z"
     id="path50"
     inkscape:connector-curvature="0" />
  <path
     style="fill:#ffffff;stroke:#ffffff;stroke-width:0.31914893"
     d="m 75.270365,118.99468 c 0.001,-0.13165 2.340794,-6.27128 5.199473,-13.64362 l 5.197599,-13.404251 h 3.779322 3.779321 l 4.902939,12.446811 c 2.696621,6.84574 5.117761,12.98537 5.380321,13.64361 l 0.47739,1.19681 h -3.4373 -3.437302 l -1.065777,-3.03191 -1.065777,-3.03192 h -5.643243 -5.643243 l -1.101097,3.03168 -1.101096,3.03169 -3.111702,2.3e-4 c -1.711437,1.3e-4 -3.110859,-0.10748 -3.109828,-0.23913 z m 17.870466,-10.69123 c 0,-0.87111 -3.597605,-11.129136 -3.8155,-10.879315 -0.247746,0.284045 -3.855434,10.632525 -3.848287,11.038635 0.0023,0.13164 1.727617,0.23936 3.834,0.23936 2.849731,0 3.829787,-0.10202 3.829787,-0.39868 z"
     id="path52"
     inkscape:connector-curvature="0" />
  <path
     style="fill:#ffffff;stroke:#ffffff;stroke-width:0.31914893"
     d="M 107.18338,105.51064 V 91.787234 l 5.82447,0.0024 c 8.80291,0.0036 11.29501,0.61088 13.43551,3.273766 1.23166,1.532245 1.53361,4.285031 0.70734,6.44858 -0.63957,1.6747 -2.57488,3.5239 -4.02023,3.84135 l -1.03954,0.22832 1.01252,0.79242 c 0.55689,0.43582 1.30438,1.36451 1.6611,2.06374 0.75884,1.48745 4.12096,10.06431 4.12096,10.51268 0,0.18105 -1.33155,0.26876 -3.26284,0.21492 l -3.26284,-0.0909 -1.51374,-4.14894 c -0.83255,-2.28191 -1.69805,-4.4955 -1.92333,-4.91909 -0.62837,-1.18152 -2.12891,-1.94007 -3.84044,-1.94142 l -1.51596,-0.001 v 5.58511 5.5851 h -3.19149 -3.19149 z m 11.55381,-2.29106 c 1.62614,-0.4872 2.48875,-1.59581 2.48875,-3.19849 0,-2.506507 -1.27721,-3.419522 -5.15539,-3.685338 l -2.50419,-0.171641 v 3.715817 3.715812 h 1.95766 c 1.07671,0 2.52263,-0.16927 3.21317,-0.37616 z"
     id="path54"
     inkscape:connector-curvature="0" />
  <path
     style="fill:#ffffff;stroke:#ffffff;stroke-width:0.31914893"
     d="M 132.7153,105.51064 V 91.787234 l 4.86702,0.0024 c 7.67168,0.0038 10.97757,0.809995 13.14099,3.204643 1.30474,1.444191 1.77503,2.941653 1.77744,5.659583 0.003,3.38433 -1.49011,5.88632 -4.3469,7.28402 -1.34089,0.65603 -2.55825,0.92498 -5.39366,1.1916 l -3.66191,0.34434 v 4.8801 4.88011 h -3.19149 -3.19149 z m 11.70835,-1.57986 c 1.28779,-0.78522 1.74935,-1.6511 1.77472,-3.32936 0.0413,-2.732806 -1.54482,-4.023876 -4.94584,-4.025759 l -2.15425,-0.0012 v 3.989359 3.98936 l 2.15425,-10e-4 c 1.5698,-8.6e-4 2.43014,-0.16941 3.17112,-0.62122 z"
     id="path56"
     inkscape:connector-curvature="0" />
  <path
     style="fill:#ffffff;stroke:#ffffff;stroke-width:0.31914893"
     d="m 166.54509,119.393 c -7.80953,-1.76887 -11.88091,-7.77873 -10.84717,-16.01174 0.7628,-6.075139 4.66611,-10.081395 11.17386,-11.46854 2.80014,-0.596859 9.45547,-0.446631 11.80097,0.266378 l 1.43617,0.436582 -0.1137,2.37833 c -0.0625,1.308082 -0.15636,2.424292 -0.20852,2.480467 -0.0521,0.05618 -1.05734,-0.195154 -2.23375,-0.55851 -2.91731,-0.901065 -7.136,-0.906249 -9.52688,-0.01171 -3.92145,1.467202 -5.99704,4.540523 -6.01611,8.908033 -0.0231,5.27844 3.22458,8.82922 8.41628,9.20191 1.16921,0.0839 2.64129,0.0559 3.27128,-0.0623 l 1.14544,-0.21489 v -3.3366 -3.3366 h -2.39362 -2.39362 v -2.23404 -2.23405 h 5.42554 5.42553 v 7.45078 7.45077 l -2.47341,0.56057 c -3.39658,0.7698 -9.24177,0.93458 -11.88829,0.33514 z"
     id="path58"
     inkscape:connector-curvature="0" />
  <path
     style="fill:#ffffff;stroke:#ffffff;stroke-width:0.31914893"
     d="m 208.67275,119.53159 c -2.50796,-0.44213 -6.11958,-2.25139 -7.75119,-3.883 -3.25207,-3.25207 -4.49906,-8.62486 -3.24083,-13.96342 0.6185,-2.624265 1.5781,-4.257333 3.62873,-6.175457 3.24553,-3.035815 7.39334,-4.230742 13.71903,-3.952261 2.25428,0.09924 4.57671,0.380089 5.29319,0.640097 l 1.2766,0.463271 -0.0446,2.293999 c -0.0246,1.261699 -0.10986,2.359229 -0.18958,2.438955 -0.0797,0.07973 -0.77773,-0.09873 -1.55112,-0.396574 -1.03876,-0.400036 -2.44853,-0.546857 -5.39553,-0.561918 -3.7402,-0.01911 -4.09159,0.03353 -5.62603,0.84295 -3.63581,1.917894 -5.0716,4.349568 -5.04928,8.551558 0.0122,2.29711 0.14459,2.96401 0.86401,4.3525 1.98689,3.83471 6.27133,5.65868 11.048,4.70335 l 0.99734,-0.19947 v -3.31117 -3.31117 h -2.55319 -2.55319 v -2.23404 -2.23405 h 5.59098 5.59099 l -0.0857,7.42022 -0.0857,7.42021 -2.23404,0.56921 c -2.64815,0.67472 -9.14245,0.96808 -11.64893,0.52621 z"
     id="path60"
     inkscape:connector-curvature="0" />
  <path
     style="fill:#ffffff;stroke:#ffffff;stroke-width:0.31914893"
     d="m 226.22964,118.99468 c 0.002,-0.13165 2.34174,-6.27128 5.19934,-13.64362 l 5.19564,-13.404251 h 3.77846 3.77845 l 1.69319,4.30851 c 0.93126,2.369681 3.33772,8.509311 5.3477,13.643621 l 3.65449,9.3351 h -3.43685 -3.43684 l -1.06578,-3.03191 -1.06578,-3.03192 h -5.61006 -5.61007 l -1.10109,3.03168 -1.1011,3.03169 -3.1117,2.3e-4 c -1.71144,1.3e-4 -3.11004,-0.10748 -3.108,-0.23913 z m 17.86864,-10.53884 c 0,-0.13545 -0.84485,-2.75646 -1.87744,-5.82446 -1.80966,-5.376807 -1.89148,-5.543623 -2.26625,-4.620742 -0.66276,1.632075 -3.51589,10.058312 -3.51589,10.383582 0,0.18067 1.58256,0.30791 3.82979,0.30791 2.10638,0 3.82979,-0.11083 3.82979,-0.24629 z"
     id="path62"
     inkscape:connector-curvature="0" />
  <path
     style="fill:#ffffff;stroke:#ffffff;stroke-width:0.31914893"
     d="M 258.30125,105.50253 V 91.771026 l 5.00032,0.08789 5.00033,0.08789 3.2604,9.734044 c 1.79323,5.35372 3.3475,9.51862 3.45394,9.25532 0.10644,-0.2633 1.42102,-4.06915 2.92128,-8.45745 1.50026,-4.388297 2.95738,-8.589095 3.23803,-9.335106 l 0.51029,-1.356383 h 4.74387 4.74388 v 13.723409 13.7234 h -3.02773 -3.02772 l -0.084,-10.93085 -0.084,-10.930853 -3.68939,10.691493 -3.68938,10.69149 -2.85317,0.0885 -2.85317,0.0885 -3.29483,-9.82256 c -1.81215,-5.40241 -3.48799,-10.25342 -3.72407,-10.780016 -0.37042,-0.826212 -0.43281,0.540816 -0.45518,9.973406 l -0.0259,10.93085 h -3.03192 -3.03191 z"
     id="path64"
     inkscape:connector-curvature="0" />
  <path
     style="fill:#ffffff;stroke:#ffffff;stroke-width:0.31914893"
     d="M 296.91827,105.51064 V 91.787234 h 9.09575 9.09574 v 2.234043 2.234042 h -5.90426 -5.90425 v 3.351064 3.351067 h 5.42553 5.42553 v 2.23404 2.23404 h -5.42553 -5.42553 v 3.67021 3.67022 h 5.90425 5.90426 V 117 v 2.23404 h -9.09574 -9.09575 z"
     id="path66"
     inkscape:connector-curvature="0" />
  <path
     style="fill:#ffffff;stroke:#ffffff;stroke-width:0.31914893"
     d="M 332.02465,105.51064 V 91.787234 h 8.93617 8.93617 v 2.234043 2.234042 h -5.74468 -5.74468 v 3.351064 3.351067 h 5.42553 5.42554 v 2.23404 2.23404 h -5.42554 -5.42553 v 3.67021 3.67022 h 5.90426 5.90425 V 117 v 2.23404 h -9.09574 -9.09575 z"
     id="path68"
     inkscape:connector-curvature="0" />
  <path
     style="fill:#ffffff;stroke:#ffffff;stroke-width:0.31914893"
     d="M 355.64168,105.51064 V 91.787234 l 3.90957,0.0056 3.90957,0.0056 5.10639,9.967766 5.10638,9.96776 0.0843,-9.9734 0.0843,-9.973409 h 2.86779 2.8678 v 13.733229 13.73323 l -3.85532,-0.0896 -3.85531,-0.0896 -5.00939,-9.47641 c -2.75517,-5.21202 -5.11336,-9.58037 -5.24043,-9.707449 -0.12708,-0.127072 -0.23104,4.173219 -0.23104,9.556199 v 9.78723 h -2.87234 -2.87234 z"
     id="path70"
     inkscape:connector-curvature="0" />
  <path
     style="fill:#ffffff;stroke:#ffffff;stroke-width:0.31914893"
     d="m 395.55406,119.39648 c -4.59456,-1.0424 -7.63028,-3.31231 -9.50632,-7.10822 l -1.20394,-2.43601 v -4.16549 c 0,-4.01728 0.036,-4.24157 1.01311,-6.304008 1.70257,-3.593894 4.82304,-6.071827 9.19966,-7.305343 2.19901,-0.619777 10.63297,-0.567004 12.60638,0.07888 l 1.43617,0.47005 -0.10059,2.367209 c -0.0553,1.301964 -0.14063,2.407252 -0.18958,2.456195 -0.0489,0.04894 -0.72176,-0.134343 -1.49515,-0.407303 -2.41188,-0.851246 -5.78565,-1.179361 -7.99922,-0.777963 -5.58224,1.012253 -8.50888,4.648703 -8.1794,10.163193 0.21973,3.67756 1.79678,6.20823 4.83593,7.76014 1.43645,0.73351 4.82492,1.11899 6.71661,0.76411 l 1.14544,-0.21489 v -3.3366 -3.3366 h -2.39361 -2.39362 v -2.23404 -2.23405 h 5.42553 5.42553 v 7.45078 7.45077 l -2.4734,0.56057 c -3.38642,0.7675 -9.24277,0.93457 -11.86953,0.33862 z"
     id="path72"
     inkscape:connector-curvature="0" />
  <path
     style="fill:#ffffff;stroke:#ffffff;stroke-width:0.31914893"
     d="M 415.96082,105.51064 V 91.787234 h 3.03192 3.03191 v 13.723406 13.7234 h -3.03191 -3.03192 z"
     id="path74"
     inkscape:connector-curvature="0" />
  <path
     style="fill:#ffffff;stroke:#ffffff;stroke-width:0.31914893"
     d="M 428.08848,105.51064 V 91.787234 h 3.96491 3.96491 l 5.05105,9.922276 5.05105,9.92228 0.0843,-9.92228 0.0843,-9.922276 h 3.02736 3.02737 v 13.723406 13.7234 h -3.94848 -3.94847 l -5.01792,-9.57431 c -2.75986,-5.26588 -5.14794,-9.65467 -5.30684,-9.75288 -0.17006,-0.105099 -0.28893,3.83393 -0.28893,9.57431 v 9.75288 h -2.87234 -2.87234 z"
     id="path76"
     inkscape:connector-curvature="0" />
  <path
     style="fill:#ffffff;stroke:#ffffff;stroke-width:0.31914893"
     d="M 458.08848,105.51064 V 91.787234 h 9.09575 9.09574 v 2.234043 2.234042 h -5.90425 -5.90426 v 3.351064 3.351067 h 5.42553 5.42554 v 2.23404 2.23404 h -5.42554 -5.42553 v 3.67021 3.67022 h 5.90426 5.90425 V 117 v 2.23404 h -9.09574 -9.09575 z"
     id="path78"
     inkscape:connector-curvature="0" />
</svg>
